<?xml version="1.0" encoding="UTF-8"?>
<!DOCTYPE svg PUBLIC "-//W3C//DTD SVG 1.1//EN" "http://www.w3.org/Graphics/SVG/1.1/DTD/svg11.dtd">
<!-- Creator: CorelDRAW -->
<svg xmlns="http://www.w3.org/2000/svg" xml:space="preserve" width="298px" height="100px" version="1.1" style="shape-rendering:geometricPrecision; text-rendering:geometricPrecision; image-rendering:optimizeQuality; fill-rule:evenodd; clip-rule:evenodd"
viewBox="0 0 81.64 27.4"
 xmlns:xlink="http://www.w3.org/1999/xlink"
 xmlns:xodm="http://www.corel.com/coreldraw/odm/2003">
 <defs>
  <style type="text/css">
   <![CDATA[
    .fil5 {fill:none}
    .fil4 {fill:#00632C}
    .fil2 {fill:#BD8E3C}
    .fil1 {fill:#00632C;fill-rule:nonzero}
    .fil0 {fill:#0B205B;fill-rule:nonzero}
    .fil3 {fill:#BD8E3C;fill-rule:nonzero}
   ]]>
  </style>
 </defs>
 <g id="Layer_x0020_1">
  <metadata id="CorelCorpID_0Corel-Layer"/>
  <path class="fil0" d="M28.93 7.82c0,0.6 0,1.13 -0.03,1.41 -0.03,0.19 -0.06,0.33 -0.19,0.36 -0.06,0.01 -0.14,0.03 -0.24,0.03 -0.08,0 -0.11,0.02 -0.11,0.05 0,0.05 0.05,0.07 0.13,0.07 0.14,0 0.31,-0.02 0.46,-0.02 0.16,0 0.31,0 0.38,0 0.2,0 0.4,0 0.69,0.02 0.28,0 0.65,0.01 1.14,0.01 0.25,0 0.31,0 0.36,-0.17 0.03,-0.13 0.09,-0.58 0.09,-0.73 0,-0.07 0,-0.12 -0.06,-0.12 -0.04,0 -0.06,0.03 -0.07,0.1 -0.05,0.27 -0.13,0.41 -0.3,0.49 -0.17,0.08 -0.45,0.08 -0.62,0.08 -0.68,0 -0.78,-0.1 -0.79,-0.56 -0.01,-0.19 0,-0.8 0,-1.02l0 -0.53c0,-0.04 0,-0.06 0.04,-0.06 0.15,0 0.81,0 0.94,0.02 0.24,0.02 0.33,0.12 0.37,0.25 0.02,0.09 0.02,0.18 0.02,0.24 0,0.04 0.02,0.06 0.06,0.06 0.06,0 0.06,-0.07 0.06,-0.12 0,-0.05 0.02,-0.31 0.03,-0.45 0.02,-0.33 0.05,-0.44 0.05,-0.48 0,-0.04 -0.02,-0.05 -0.05,-0.05 -0.03,0 -0.05,0.03 -0.1,0.08 -0.06,0.07 -0.16,0.09 -0.32,0.1 -0.15,0.02 -0.91,0.02 -1.06,0.02 -0.04,0 -0.04,-0.03 -0.04,-0.08l0 -1.67c0,-0.05 0.01,-0.07 0.04,-0.07 0.13,0 0.83,0.01 0.94,0.03 0.33,0.04 0.4,0.12 0.45,0.24 0.03,0.08 0.04,0.19 0.04,0.23 0,0.06 0.01,0.1 0.05,0.1 0.05,0 0.06,-0.04 0.07,-0.08 0.01,-0.08 0.03,-0.37 0.03,-0.43 0.02,-0.31 0.06,-0.39 0.06,-0.43 0,-0.04 -0.01,-0.06 -0.04,-0.06 -0.04,0 -0.08,0.02 -0.11,0.02 -0.05,0.02 -0.16,0.03 -0.28,0.04 -0.13,0.01 -1.45,0.01 -1.66,0.01 -0.09,0 -0.24,-0.01 -0.42,-0.01 -0.16,0 -0.35,-0.01 -0.53,-0.01 -0.1,0 -0.15,0.01 -0.15,0.06 0,0.05 0.04,0.06 0.12,0.06 0.09,0 0.2,0.01 0.25,0.02 0.22,0.05 0.27,0.15 0.29,0.38 0.01,0.21 0.01,0.39 0.01,1.4l0 1.17z"/>
  <path id="_1" class="fil0" d="M32.7 9.07c-0.03,0.23 -0.08,0.49 -0.27,0.53 -0.1,0.02 -0.14,0.02 -0.2,0.02 -0.06,0 -0.1,0.01 -0.1,0.04 0,0.06 0.05,0.08 0.12,0.08 0.21,0 0.53,-0.02 0.65,-0.02 0.12,0 0.42,0.02 0.7,0.02 0.1,0 0.16,-0.02 0.16,-0.08 0,-0.03 -0.05,-0.04 -0.1,-0.04 -0.07,0 -0.16,-0.01 -0.28,-0.04 -0.11,-0.02 -0.2,-0.08 -0.2,-0.21 0,-0.1 0.01,-0.19 0.02,-0.31l0.35 -2.63 0.02 0c0.23,0.49 0.63,1.33 0.69,1.46 0.08,0.19 0.6,1.2 0.76,1.51 0.11,0.2 0.17,0.33 0.23,0.33 0.06,0 0.1,-0.06 0.25,-0.37l1.44 -3.01 0.03 0 0.4 2.92c0.02,0.18 0,0.27 -0.04,0.28 -0.04,0.02 -0.07,0.04 -0.07,0.07 0,0.04 0.04,0.06 0.19,0.08 0.27,0.02 1.18,0.04 1.34,0.04 0.1,0 0.18,-0.02 0.18,-0.08 0,-0.04 -0.05,-0.04 -0.11,-0.04 -0.08,0 -0.22,-0.01 -0.41,-0.07 -0.2,-0.06 -0.26,-0.25 -0.32,-0.67l-0.61 -4.09c-0.02,-0.14 -0.06,-0.21 -0.12,-0.21 -0.05,0 -0.09,0.06 -0.14,0.16l-1.8 3.78 -1.81 -3.73c-0.08,-0.17 -0.12,-0.21 -0.18,-0.21 -0.05,0 -0.09,0.06 -0.11,0.18l-0.66 4.31z"/>
  <path id="_2" class="fil0" d="M40.02 7.82c0,0.6 0,1.13 -0.03,1.41 -0.03,0.19 -0.06,0.33 -0.2,0.36 -0.05,0.01 -0.13,0.03 -0.23,0.03 -0.08,0 -0.11,0.02 -0.11,0.05 0,0.05 0.05,0.07 0.13,0.07 0.27,0 0.68,-0.02 0.84,-0.02 0.17,0 0.59,0.02 1.02,0.02 0.08,0 0.13,-0.02 0.13,-0.07 0,-0.03 -0.03,-0.05 -0.11,-0.05 -0.1,0 -0.24,-0.02 -0.33,-0.03 -0.2,-0.03 -0.24,-0.17 -0.26,-0.36 -0.04,-0.28 -0.04,-0.81 -0.04,-1.41l0 -2.65c0,-0.08 0.02,-0.12 0.06,-0.13 0.06,-0.02 0.16,-0.02 0.26,-0.02 0.15,0 0.42,0.03 0.66,0.25 0.37,0.33 0.39,0.78 0.39,1 0,0.67 -0.52,1.09 -0.89,1.09 -0.14,0 -0.18,0.02 -0.18,0.07 0,0.05 0.04,0.05 0.07,0.06 0.04,0.01 0.11,0.01 0.14,0.01 0.94,0 1.63,-0.66 1.63,-1.6 0,-0.36 -0.18,-0.65 -0.33,-0.79 -0.1,-0.1 -0.4,-0.38 -1.23,-0.38 -0.3,0 -0.69,0.02 -0.96,0.02 -0.19,0 -0.6,-0.02 -0.95,-0.02 -0.1,0 -0.15,0.01 -0.15,0.06 0,0.05 0.04,0.06 0.11,0.06 0.1,0 0.21,0.01 0.26,0.02 0.22,0.05 0.27,0.15 0.29,0.38 0.01,0.21 0.01,0.39 0.01,1.4l0 1.17z"/>
  <path id="_3" class="fil0" d="M45.18 6.65c0,-1.01 0,-1.19 0.02,-1.4 0.01,-0.23 0.06,-0.35 0.24,-0.38 0.08,-0.01 0.19,-0.02 0.26,-0.02 0.08,0 0.12,-0.01 0.12,-0.06 0,-0.05 -0.05,-0.06 -0.14,-0.06 -0.26,0 -0.74,0.02 -0.9,0.02 -0.18,0 -0.6,-0.02 -0.91,-0.02 -0.1,0 -0.14,0.01 -0.14,0.06 0,0.05 0.04,0.06 0.11,0.06 0.09,0 0.16,0.01 0.22,0.02 0.22,0.05 0.27,0.15 0.28,0.38 0.02,0.21 0.02,0.39 0.02,1.4l0 1.17c0,0.6 0,1.13 -0.04,1.41 -0.02,0.19 -0.06,0.33 -0.19,0.36 -0.06,0.01 -0.14,0.03 -0.24,0.03 -0.08,0 -0.1,0.02 -0.1,0.05 0,0.05 0.04,0.07 0.13,0.07 0.13,0 0.3,-0.02 0.46,-0.02 0.15,0 0.3,0 0.37,0 0.27,0 0.51,0 0.81,0.02 0.3,0 0.64,0.01 1.12,0.01 0.34,0 0.38,-0.03 0.42,-0.17 0.05,-0.2 0.1,-0.69 0.1,-0.77 0,-0.07 -0.01,-0.11 -0.06,-0.11 -0.05,0 -0.06,0.04 -0.07,0.1 -0.01,0.13 -0.09,0.31 -0.17,0.4 -0.17,0.18 -0.43,0.18 -0.78,0.18 -0.51,0 -0.69,-0.04 -0.8,-0.14 -0.14,-0.12 -0.14,-0.58 -0.14,-1.42l0 -1.17z"/>
  <path id="_4" class="fil0" d="M50.27 9.83c1.69,0 2.74,-1.2 2.74,-2.72 0,-1.51 -1.02,-2.47 -2.67,-2.47 -1.99,0 -2.73,1.46 -2.73,2.59 0,1.17 0.76,2.6 2.66,2.6zm0.28 -0.33c-1.27,0 -2.03,-1.1 -2.03,-2.47 0,-1.65 0.87,-2.07 1.63,-2.07 1.08,0 1.94,0.92 1.94,2.4 0,1.91 -1.07,2.14 -1.54,2.14z"/>
  <path id="_5" class="fil0" d="M55.21 8.56c0,0.11 0,0.39 -0.02,0.67 -0.02,0.19 -0.08,0.33 -0.21,0.36 -0.06,0.01 -0.14,0.03 -0.23,0.03 -0.07,0 -0.11,0.02 -0.11,0.05 0,0.05 0.06,0.07 0.15,0.07 0.24,0 0.66,-0.02 0.83,-0.02 0.17,0 0.59,0.02 1.01,0.02 0.08,0 0.14,-0.02 0.14,-0.07 0,-0.03 -0.04,-0.05 -0.11,-0.05 -0.09,0 -0.24,-0.02 -0.33,-0.03 -0.2,-0.03 -0.26,-0.17 -0.27,-0.36 -0.02,-0.28 -0.02,-0.56 -0.02,-0.67l0 -0.54c0,-0.22 0,-0.42 0.1,-0.66 0.12,-0.29 1.04,-1.84 1.26,-2.11 0.15,-0.18 0.22,-0.25 0.36,-0.32 0.1,-0.05 0.23,-0.08 0.29,-0.08 0.07,0 0.13,-0.02 0.13,-0.07 0,-0.04 -0.05,-0.05 -0.12,-0.05 -0.13,0 -0.56,0.02 -0.71,0.02 -0.19,0 -0.4,-0.02 -0.62,-0.02 -0.08,0 -0.11,0.01 -0.11,0.06 0,0.04 0.06,0.05 0.11,0.07 0.12,0.02 0.14,0.1 0.14,0.16 0,0.09 -0.02,0.2 -0.09,0.35 -0.09,0.2 -0.93,1.66 -0.99,1.82 -0.11,-0.19 -1.03,-1.78 -1.13,-1.98 -0.04,-0.1 -0.08,-0.18 -0.08,-0.23 0,-0.05 0.04,-0.1 0.1,-0.12 0.1,-0.02 0.14,-0.03 0.14,-0.07 0,-0.04 -0.03,-0.06 -0.1,-0.06 -0.3,0 -0.57,0.02 -0.71,0.02 -0.21,0 -0.71,-0.02 -0.83,-0.02 -0.08,0 -0.13,0.02 -0.13,0.06 0,0.05 0.05,0.06 0.1,0.06 0.08,0 0.2,0.04 0.28,0.09 0.13,0.07 0.29,0.23 0.46,0.48 0.23,0.34 1.12,1.8 1.16,1.91 0.09,0.19 0.16,0.33 0.16,0.69l0 0.54z"/>
  <path id="_6" class="fil0" d="M58.44 9.07c-0.04,0.23 -0.09,0.49 -0.28,0.53 -0.09,0.02 -0.14,0.02 -0.19,0.02 -0.07,0 -0.11,0.01 -0.11,0.04 0,0.06 0.05,0.08 0.12,0.08 0.21,0 0.53,-0.02 0.65,-0.02 0.12,0 0.42,0.02 0.7,0.02 0.1,0 0.16,-0.02 0.16,-0.08 0,-0.03 -0.05,-0.04 -0.1,-0.04 -0.07,0 -0.16,-0.01 -0.28,-0.04 -0.11,-0.02 -0.2,-0.08 -0.2,-0.21 0,-0.1 0.01,-0.19 0.02,-0.31l0.35 -2.63 0.02 0c0.23,0.49 0.63,1.33 0.69,1.46 0.08,0.19 0.6,1.2 0.76,1.51 0.11,0.2 0.18,0.33 0.23,0.33 0.06,0 0.1,-0.06 0.25,-0.37l1.44 -3.01 0.03 0 0.4 2.92c0.02,0.18 0,0.27 -0.04,0.28 -0.04,0.02 -0.07,0.04 -0.07,0.07 0,0.04 0.04,0.06 0.19,0.08 0.27,0.02 1.18,0.04 1.35,0.04 0.09,0 0.17,-0.02 0.17,-0.08 0,-0.04 -0.05,-0.04 -0.11,-0.04 -0.08,0 -0.22,-0.01 -0.41,-0.07 -0.2,-0.06 -0.26,-0.25 -0.32,-0.67l-0.6 -4.09c-0.02,-0.14 -0.06,-0.21 -0.12,-0.21 -0.06,0 -0.1,0.06 -0.15,0.16l-1.8 3.78 -1.81 -3.73c-0.08,-0.17 -0.12,-0.21 -0.18,-0.21 -0.05,0 -0.09,0.06 -0.11,0.18l-0.65 4.31z"/>
  <path id="_7" class="fil0" d="M65.75 7.82c0,0.6 0,1.13 -0.03,1.41 -0.03,0.19 -0.06,0.33 -0.19,0.36 -0.06,0.01 -0.14,0.03 -0.24,0.03 -0.08,0 -0.11,0.02 -0.11,0.05 0,0.05 0.05,0.07 0.13,0.07 0.14,0 0.31,-0.02 0.46,-0.02 0.16,0 0.31,0 0.38,0 0.2,0 0.4,0 0.69,0.02 0.28,0 0.65,0.01 1.14,0.01 0.25,0 0.31,0 0.36,-0.17 0.03,-0.13 0.09,-0.58 0.09,-0.73 0,-0.07 0,-0.12 -0.06,-0.12 -0.04,0 -0.06,0.03 -0.07,0.1 -0.05,0.27 -0.13,0.41 -0.3,0.49 -0.17,0.08 -0.45,0.08 -0.62,0.08 -0.68,0 -0.78,-0.1 -0.79,-0.56 -0.01,-0.19 0,-0.8 0,-1.02l0 -0.53c0,-0.04 0,-0.06 0.03,-0.06 0.16,0 0.82,0 0.94,0.02 0.25,0.02 0.34,0.12 0.38,0.25 0.02,0.09 0.02,0.18 0.02,0.24 0,0.04 0.02,0.06 0.06,0.06 0.06,0 0.06,-0.07 0.06,-0.12 0,-0.05 0.02,-0.31 0.03,-0.45 0.02,-0.33 0.05,-0.44 0.05,-0.48 0,-0.04 -0.02,-0.05 -0.05,-0.05 -0.03,0 -0.06,0.03 -0.1,0.08 -0.06,0.07 -0.16,0.09 -0.32,0.1 -0.15,0.02 -0.91,0.02 -1.06,0.02 -0.04,0 -0.04,-0.03 -0.04,-0.08l0 -1.67c0,-0.05 0.01,-0.07 0.04,-0.07 0.13,0 0.83,0.01 0.94,0.03 0.33,0.04 0.4,0.12 0.44,0.24 0.04,0.08 0.04,0.19 0.04,0.23 0,0.06 0.02,0.1 0.06,0.1 0.05,0 0.06,-0.04 0.07,-0.08 0.01,-0.08 0.03,-0.37 0.03,-0.43 0.02,-0.31 0.06,-0.39 0.06,-0.43 0,-0.04 -0.01,-0.06 -0.04,-0.06 -0.04,0 -0.08,0.02 -0.11,0.02 -0.05,0.02 -0.16,0.03 -0.28,0.04 -0.13,0.01 -1.45,0.01 -1.66,0.01 -0.09,0 -0.24,-0.01 -0.42,-0.01 -0.16,0 -0.35,-0.01 -0.53,-0.01 -0.1,0 -0.15,0.01 -0.15,0.06 0,0.05 0.04,0.06 0.11,0.06 0.1,0 0.21,0.01 0.26,0.02 0.22,0.05 0.27,0.15 0.29,0.38 0.01,0.21 0.01,0.39 0.01,1.4l0 1.17z"/>
  <path id="_8" class="fil0" d="M70.23 6.05l0.02 0c0.12,0.13 0.86,0.96 1.58,1.67 0.69,0.68 1.53,1.55 1.95,1.95 0.07,0.07 0.15,0.14 0.23,0.14 0.06,0 0.08,-0.06 0.08,-0.2l0.07 -4.18c0.01,-0.37 0.06,-0.51 0.25,-0.56 0.08,-0.02 0.13,-0.02 0.2,-0.02 0.08,0 0.12,-0.02 0.12,-0.06 0,-0.05 -0.07,-0.06 -0.15,-0.06 -0.33,0 -0.58,0.02 -0.65,0.02 -0.14,0 -0.46,-0.02 -0.8,-0.02 -0.1,0 -0.18,0.01 -0.18,0.06 0,0.04 0.03,0.06 0.11,0.06 0.09,0 0.25,0 0.35,0.04 0.16,0.07 0.22,0.19 0.23,0.6l0.06 2.97 -0.03 0c-0.11,-0.11 -1.01,-1.06 -1.46,-1.51 -0.96,-0.96 -1.97,-2.04 -2.05,-2.13 -0.11,-0.12 -0.17,-0.2 -0.25,-0.2 -0.06,0 -0.08,0.09 -0.08,0.22l-0.06 3.92c-0.01,0.58 -0.03,0.77 -0.21,0.82 -0.09,0.03 -0.21,0.04 -0.29,0.04 -0.07,0 -0.11,0.01 -0.11,0.05 0,0.06 0.06,0.07 0.15,0.07 0.34,0 0.65,-0.02 0.71,-0.02 0.13,0 0.39,0.02 0.82,0.02 0.09,0 0.15,-0.02 0.15,-0.07 0,-0.04 -0.04,-0.05 -0.11,-0.05 -0.1,0 -0.23,-0.01 -0.34,-0.05 -0.14,-0.05 -0.22,-0.22 -0.23,-0.74l-0.08 -2.78z"/>
  <path id="_9" class="fil0" d="M77.08 7.82c0,0.6 0,1.13 -0.03,1.41 -0.02,0.19 -0.06,0.33 -0.19,0.36 -0.06,0.01 -0.14,0.03 -0.24,0.03 -0.08,0 -0.11,0.02 -0.11,0.05 0,0.05 0.05,0.07 0.14,0.07 0.26,0 0.68,-0.02 0.83,-0.02 0.19,0 0.6,0.02 1.04,0.02 0.07,0 0.13,-0.02 0.13,-0.07 0,-0.03 -0.04,-0.05 -0.11,-0.05 -0.1,0 -0.24,-0.02 -0.34,-0.03 -0.2,-0.03 -0.24,-0.17 -0.26,-0.36 -0.03,-0.28 -0.03,-0.81 -0.03,-1.41l0 -2.72 0.84 0.02c0.58,0.01 0.76,0.2 0.78,0.37l0 0.07c0.01,0.1 0.02,0.14 0.08,0.14 0.04,0 0.05,-0.04 0.06,-0.11 0,-0.17 0.02,-0.63 0.02,-0.77 0,-0.1 -0.01,-0.14 -0.06,-0.14 -0.02,0 -0.08,0.02 -0.18,0.04 -0.1,0.01 -0.24,0.03 -0.45,0.03l-2.62 0c-0.22,0 -0.47,-0.01 -0.67,-0.03 -0.16,-0.02 -0.23,-0.08 -0.28,-0.08 -0.04,0 -0.06,0.04 -0.08,0.12 -0.01,0.06 -0.14,0.66 -0.14,0.76 0,0.08 0.01,0.11 0.06,0.11 0.04,0 0.06,-0.03 0.07,-0.08 0.02,-0.05 0.05,-0.13 0.12,-0.23 0.09,-0.15 0.25,-0.18 0.64,-0.19l0.98 -0.03 0 2.72z"/>
  <path id="_10" class="fil0" d="M28.93 14.31c0,0.61 0,1.13 -0.03,1.41 -0.03,0.19 -0.06,0.34 -0.19,0.36 -0.06,0.02 -0.14,0.03 -0.24,0.03 -0.08,0 -0.11,0.02 -0.11,0.05 0,0.05 0.05,0.07 0.13,0.07 0.27,0 0.69,-0.02 0.84,-0.02 0.17,0 0.59,0.02 1.02,0.02 0.08,0 0.13,-0.02 0.13,-0.07 0,-0.03 -0.03,-0.05 -0.11,-0.05 -0.09,0 -0.24,-0.01 -0.33,-0.03 -0.2,-0.02 -0.24,-0.17 -0.26,-0.35 -0.03,-0.29 -0.03,-0.81 -0.03,-1.42l0 -2.65c0,-0.07 0.02,-0.11 0.05,-0.13 0.06,-0.02 0.16,-0.02 0.26,-0.02 0.15,0 0.42,0.04 0.66,0.26 0.37,0.33 0.39,0.77 0.39,0.99 0,0.67 -0.52,1.09 -0.89,1.09 -0.14,0 -0.18,0.02 -0.18,0.07 0,0.05 0.04,0.06 0.08,0.06 0.03,0.01 0.1,0.01 0.14,0.01 0.94,0 1.62,-0.66 1.62,-1.6 0,-0.35 -0.18,-0.65 -0.33,-0.79 -0.1,-0.1 -0.4,-0.38 -1.23,-0.38 -0.3,0 -0.69,0.02 -0.96,0.02 -0.18,0 -0.6,-0.02 -0.95,-0.02 -0.1,0 -0.15,0.02 -0.15,0.06 0,0.05 0.04,0.06 0.12,0.06 0.09,0 0.2,0.01 0.25,0.02 0.22,0.05 0.27,0.15 0.29,0.38 0.01,0.21 0.01,0.4 0.01,1.4l0 1.17z"/>
  <path id="_11" class="fil0" d="M33.27 14.31c0,0.61 0,1.13 -0.04,1.41 -0.02,0.19 -0.06,0.34 -0.19,0.36 -0.06,0.02 -0.14,0.03 -0.24,0.03 -0.08,0 -0.1,0.02 -0.1,0.05 0,0.05 0.04,0.07 0.13,0.07 0.27,0 0.68,-0.02 0.81,-0.02 0.1,0 0.59,0.02 0.97,0.02 0.09,0 0.13,-0.02 0.13,-0.07 0,-0.03 -0.02,-0.05 -0.08,-0.05 -0.08,0 -0.22,-0.01 -0.32,-0.03 -0.2,-0.02 -0.24,-0.17 -0.26,-0.36 -0.03,-0.28 -0.03,-0.8 -0.03,-1.42l0 -0.09c0,-0.04 0.02,-0.05 0.05,-0.05l0.58 0.01c0.04,0 0.08,0.01 0.12,0.05 0.08,0.1 0.39,0.55 0.65,0.91 0.37,0.51 0.62,0.82 0.91,0.97 0.17,0.1 0.34,0.13 0.71,0.13l0.63 0c0.08,0 0.12,-0.02 0.12,-0.07 0,-0.03 -0.02,-0.05 -0.08,-0.05 -0.05,0 -0.11,-0.01 -0.18,-0.02 -0.1,-0.02 -0.37,-0.07 -0.74,-0.45 -0.39,-0.41 -0.85,-1 -1.44,-1.74 0.67,-0.54 0.87,-0.99 0.87,-1.48 0,-0.45 -0.26,-0.79 -0.45,-0.91 -0.35,-0.25 -0.8,-0.29 -1.22,-0.29 -0.2,0 -0.7,0.02 -0.93,0.02 -0.14,0 -0.55,-0.02 -0.91,-0.02 -0.09,0 -0.14,0.02 -0.14,0.06 0,0.05 0.04,0.06 0.11,0.06 0.09,0 0.21,0.01 0.26,0.02 0.22,0.05 0.27,0.15 0.28,0.38 0.02,0.21 0.02,0.4 0.02,1.4l0 1.17zm0.78 -2.66c0,-0.05 0.01,-0.08 0.06,-0.09 0.06,-0.02 0.18,-0.03 0.35,-0.03 0.39,0 1.01,0.28 1.01,1.22 0,0.54 -0.19,0.84 -0.39,0.99 -0.12,0.09 -0.2,0.11 -0.47,0.11 -0.16,0 -0.36,-0.02 -0.5,-0.06 -0.05,-0.02 -0.06,-0.05 -0.06,-0.12l0 -2.02z"/>
  <path id="_12" class="fil0" d="M40.18 16.32c1.68,0 2.74,-1.2 2.74,-2.71 0,-1.52 -1.03,-2.48 -2.68,-2.48 -1.98,0 -2.73,1.46 -2.73,2.6 0,1.17 0.77,2.59 2.67,2.59zm0.28 -0.33c-1.27,0 -2.04,-1.09 -2.04,-2.47 0,-1.65 0.87,-2.07 1.63,-2.07 1.09,0 1.94,0.92 1.94,2.4 0,1.91 -1.07,2.14 -1.53,2.14z"/>
  <path id="_13" class="fil0" d="M46.74 16.32c0.42,0 0.93,-0.05 1.19,-0.15 0.11,-0.05 0.14,-0.08 0.17,-0.19 0.07,-0.23 0.15,-0.8 0.15,-0.88 0,-0.06 -0.02,-0.1 -0.06,-0.1 -0.05,0 -0.07,0.02 -0.09,0.13 -0.02,0.12 -0.11,0.31 -0.22,0.44 -0.27,0.3 -0.62,0.37 -1.21,0.37 -0.89,0 -2.09,-0.78 -2.09,-2.36 0,-0.64 0.13,-1.27 0.61,-1.71 0.29,-0.27 0.67,-0.41 1.24,-0.41 0.61,0 1.13,0.17 1.35,0.41 0.16,0.17 0.25,0.4 0.26,0.6 0,0.1 0.01,0.15 0.06,0.15 0.06,0 0.08,-0.05 0.08,-0.15 0.02,-0.13 0.01,-0.5 0.02,-0.72 0.02,-0.23 0.03,-0.31 0.03,-0.36 0,-0.04 -0.02,-0.07 -0.09,-0.08 -0.2,-0.02 -0.41,-0.08 -0.67,-0.11 -0.3,-0.04 -0.55,-0.07 -0.96,-0.07 -0.98,0 -1.61,0.27 -2.09,0.7 -0.63,0.59 -0.77,1.37 -0.77,1.82 0,0.64 0.17,1.38 0.82,1.95 0.6,0.52 1.36,0.72 2.27,0.72z"/>
  <path id="_14" class="fil0" d="M49.66 14.31c0,0.61 0,1.13 -0.03,1.41 -0.02,0.19 -0.06,0.34 -0.19,0.36 -0.06,0.02 -0.14,0.03 -0.24,0.03 -0.08,0 -0.1,0.02 -0.1,0.05 0,0.05 0.04,0.07 0.13,0.07 0.13,0 0.3,-0.02 0.45,-0.02 0.16,0 0.31,0 0.38,0 0.2,0 0.41,0 0.69,0.02 0.29,0 0.65,0.02 1.15,0.02 0.25,0 0.31,0 0.35,-0.17 0.04,-0.14 0.09,-0.59 0.09,-0.74 0,-0.07 0,-0.12 -0.05,-0.12 -0.05,0 -0.06,0.03 -0.08,0.1 -0.04,0.27 -0.12,0.41 -0.29,0.49 -0.18,0.08 -0.45,0.08 -0.63,0.08 -0.67,0 -0.78,-0.1 -0.79,-0.56 -0.01,-0.19 0,-0.8 0,-1.02l0 -0.52c0,-0.04 0.01,-0.07 0.04,-0.07 0.16,0 0.81,0.01 0.94,0.02 0.24,0.03 0.34,0.12 0.37,0.26 0.02,0.08 0.02,0.17 0.03,0.24 0,0.03 0.01,0.06 0.06,0.06 0.05,0 0.05,-0.08 0.05,-0.13 0,-0.05 0.02,-0.31 0.03,-0.44 0.03,-0.34 0.05,-0.45 0.05,-0.49 0,-0.04 -0.02,-0.05 -0.04,-0.05 -0.04,0 -0.06,0.03 -0.11,0.09 -0.06,0.06 -0.16,0.08 -0.32,0.1 -0.15,0.01 -0.91,0.01 -1.05,0.01 -0.04,0 -0.05,-0.03 -0.05,-0.07l0 -1.68c0,-0.05 0.01,-0.07 0.05,-0.07 0.13,0 0.82,0.02 0.94,0.03 0.33,0.04 0.39,0.12 0.44,0.24 0.03,0.08 0.04,0.19 0.04,0.24 0,0.06 0.01,0.09 0.06,0.09 0.04,0 0.06,-0.04 0.06,-0.07 0.02,-0.08 0.03,-0.37 0.04,-0.44 0.02,-0.3 0.05,-0.38 0.05,-0.43 0,-0.03 -0.01,-0.06 -0.04,-0.06 -0.03,0 -0.07,0.02 -0.11,0.03 -0.05,0.01 -0.15,0.02 -0.28,0.04 -0.13,0 -1.44,0 -1.65,0 -0.1,0 -0.25,0 -0.42,-0.01 -0.17,0 -0.36,-0.01 -0.54,-0.01 -0.1,0 -0.14,0.02 -0.14,0.06 0,0.05 0.04,0.06 0.11,0.06 0.09,0 0.2,0.01 0.26,0.02 0.22,0.05 0.27,0.15 0.28,0.38 0.01,0.21 0.01,0.4 0.01,1.4l0 1.17z"/>
  <path id="_15" class="fil0" d="M54.45 16.32c0.35,0 0.72,-0.06 1.05,-0.27 0.48,-0.31 0.63,-0.77 0.63,-1.15 0,-0.63 -0.29,-1.09 -1.09,-1.69l-0.19 -0.14c-0.54,-0.42 -0.7,-0.65 -0.7,-0.95 0,-0.4 0.3,-0.68 0.79,-0.68 0.43,0 0.62,0.19 0.72,0.32 0.14,0.17 0.17,0.38 0.17,0.44 0,0.08 0.02,0.12 0.07,0.12 0.05,0 0.07,-0.06 0.07,-0.2 0,-0.52 0.03,-0.71 0.03,-0.8 0,-0.04 -0.03,-0.06 -0.09,-0.08 -0.17,-0.04 -0.45,-0.11 -0.88,-0.11 -0.92,0 -1.53,0.52 -1.53,1.25 0,0.54 0.25,1 0.98,1.57l0.3 0.24c0.55,0.43 0.65,0.73 0.65,1.06 0,0.35 -0.29,0.75 -0.89,0.75 -0.41,0 -0.8,-0.18 -0.94,-0.67 -0.04,-0.11 -0.06,-0.25 -0.06,-0.33 0,-0.06 -0.01,-0.12 -0.07,-0.12 -0.05,0 -0.07,0.08 -0.08,0.18 0,0.1 -0.03,0.5 -0.03,0.86 0,0.15 0.02,0.18 0.12,0.23 0.29,0.12 0.59,0.17 0.97,0.17z"/>
  <path id="_16" class="fil0" d="M58.3 16.32c0.35,0 0.73,-0.06 1.06,-0.27 0.47,-0.31 0.62,-0.77 0.62,-1.15 0,-0.63 -0.29,-1.09 -1.09,-1.69l-0.18 -0.14c-0.55,-0.42 -0.7,-0.65 -0.7,-0.95 0,-0.4 0.29,-0.68 0.78,-0.68 0.43,0 0.63,0.19 0.73,0.32 0.13,0.17 0.17,0.38 0.17,0.44 0,0.08 0.02,0.12 0.06,0.12 0.06,0 0.08,-0.06 0.08,-0.2 0,-0.52 0.02,-0.71 0.02,-0.8 0,-0.04 -0.03,-0.06 -0.09,-0.08 -0.17,-0.04 -0.45,-0.11 -0.88,-0.11 -0.92,0 -1.53,0.52 -1.53,1.25 0,0.54 0.25,1 0.98,1.57l0.3 0.24c0.55,0.43 0.65,0.73 0.65,1.06 0,0.35 -0.29,0.75 -0.88,0.75 -0.41,0 -0.8,-0.18 -0.95,-0.67 -0.03,-0.11 -0.06,-0.25 -0.06,-0.33 0,-0.06 -0.01,-0.12 -0.07,-0.12 -0.05,0 -0.07,0.08 -0.08,0.18 0,0.1 -0.03,0.5 -0.03,0.86 0,0.15 0.02,0.18 0.13,0.23 0.28,0.12 0.58,0.17 0.96,0.17z"/>
  <path id="_17" class="fil0" d="M61.55 14.31c0,0.64 0,1.16 -0.03,1.44 -0.02,0.19 -0.06,0.31 -0.19,0.33 -0.06,0.02 -0.14,0.03 -0.24,0.03 -0.08,0 -0.11,0.02 -0.11,0.05 0,0.05 0.05,0.07 0.14,0.07 0.26,0 0.68,-0.02 0.83,-0.02 0.18,0 0.6,0.02 1.03,0.02 0.08,0 0.13,-0.02 0.13,-0.07 0,-0.03 -0.03,-0.05 -0.11,-0.05 -0.1,0 -0.24,-0.01 -0.33,-0.03 -0.2,-0.02 -0.25,-0.14 -0.27,-0.32 -0.02,-0.29 -0.02,-0.81 -0.02,-1.45l0 -1.17c0,-1 0,-1.19 0.01,-1.4 0.01,-0.23 0.06,-0.34 0.24,-0.38 0.08,-0.01 0.14,-0.02 0.2,-0.02 0.07,0 0.11,-0.01 0.11,-0.06 0,-0.04 -0.06,-0.06 -0.14,-0.06 -0.25,0 -0.64,0.02 -0.81,0.02 -0.19,0 -0.61,-0.02 -0.86,-0.02 -0.11,0 -0.16,0.02 -0.16,0.06 0,0.05 0.04,0.06 0.11,0.06 0.08,0 0.16,0.01 0.24,0.03 0.14,0.03 0.21,0.14 0.22,0.37 0.01,0.21 0.01,0.4 0.01,1.4l0 1.17z"/>
  <path id="_18" class="fil0" d="M64.84 12.55l0.02 0c0.12,0.12 0.86,0.95 1.58,1.67 0.69,0.68 1.54,1.54 1.95,1.94 0.08,0.07 0.15,0.15 0.23,0.15 0.06,0 0.08,-0.06 0.08,-0.21l0.08 -4.17c0,-0.38 0.06,-0.51 0.24,-0.57 0.08,-0.02 0.13,-0.02 0.2,-0.02 0.08,0 0.12,-0.02 0.12,-0.06 0,-0.05 -0.07,-0.06 -0.15,-0.06 -0.33,0 -0.58,0.02 -0.65,0.02 -0.14,0 -0.46,-0.02 -0.8,-0.02 -0.1,0 -0.18,0.01 -0.18,0.06 0,0.04 0.03,0.06 0.11,0.06 0.09,0 0.25,0 0.35,0.04 0.16,0.07 0.22,0.19 0.23,0.6l0.06 2.97 -0.03 0c-0.11,-0.11 -1.01,-1.06 -1.46,-1.51 -0.96,-0.96 -1.97,-2.04 -2.05,-2.12 -0.11,-0.12 -0.17,-0.21 -0.24,-0.21 -0.07,0 -0.09,0.09 -0.09,0.23l-0.06 3.92c-0.01,0.57 -0.03,0.76 -0.2,0.82 -0.1,0.02 -0.22,0.03 -0.3,0.03 -0.07,0 -0.11,0.01 -0.11,0.05 0,0.06 0.06,0.07 0.15,0.07 0.34,0 0.65,-0.02 0.71,-0.02 0.13,0 0.39,0.02 0.82,0.02 0.1,0 0.16,-0.02 0.16,-0.07 0,-0.04 -0.04,-0.05 -0.12,-0.05 -0.1,0 -0.23,-0.01 -0.34,-0.05 -0.13,-0.04 -0.22,-0.22 -0.23,-0.73l-0.08 -2.78z"/>
  <path id="_19" class="fil0" d="M74.77 15.06c0,-0.33 0,-0.6 0,-0.8 0.01,-0.23 0.08,-0.34 0.26,-0.38 0.07,-0.01 0.12,-0.02 0.17,-0.02 0.05,0 0.09,-0.01 0.09,-0.05 0,-0.05 -0.05,-0.06 -0.13,-0.06 -0.22,0 -0.57,0.02 -0.78,0.02 -0.2,0 -0.61,-0.02 -0.96,-0.02 -0.09,0 -0.14,0.01 -0.14,0.06 0,0.04 0.04,0.05 0.1,0.05 0.1,0 0.21,0.01 0.26,0.02 0.22,0.05 0.28,0.16 0.29,0.38 0,0.2 0,0.45 0,0.78l0 0.63c0,0.11 -0.02,0.19 -0.12,0.24 -0.16,0.07 -0.39,0.07 -0.57,0.07 -1.39,0 -2.3,-1.06 -2.3,-2.49 0,-0.81 0.24,-1.31 0.61,-1.62 0.46,-0.38 0.95,-0.41 1.31,-0.41 0.75,0 1.28,0.31 1.48,0.52 0.17,0.18 0.2,0.4 0.22,0.55 0.01,0.05 0.02,0.08 0.07,0.08 0.05,0 0.07,-0.03 0.07,-0.14 0,-0.82 0.05,-1.01 0.05,-1.08 0,-0.05 -0.02,-0.07 -0.1,-0.08 -0.15,-0.01 -0.38,-0.05 -0.52,-0.07 -0.13,-0.03 -0.71,-0.11 -1.17,-0.11 -0.56,0 -1.15,0.05 -1.78,0.43 -0.6,0.37 -1.15,1.11 -1.15,2.17 0,1.82 1.43,2.59 3.06,2.59 0.51,0 1.16,-0.07 1.59,-0.3 0.08,-0.04 0.09,-0.06 0.09,-0.24l0 -0.72z"/>
  <path id="_20" class="fil0" d="M28.93 20.8c0,0.61 0,1.13 -0.03,1.41 -0.03,0.19 -0.06,0.34 -0.19,0.37 -0.06,0.01 -0.14,0.02 -0.24,0.02 -0.08,0 -0.11,0.02 -0.11,0.06 0,0.04 0.05,0.06 0.13,0.06 0.27,0 0.69,-0.02 0.81,-0.02 0.1,0 0.59,0.02 0.98,0.02 0.08,0 0.13,-0.02 0.13,-0.06 0,-0.04 -0.03,-0.06 -0.08,-0.06 -0.08,0 -0.23,-0.01 -0.33,-0.02 -0.19,-0.03 -0.23,-0.18 -0.25,-0.37 -0.04,-0.28 -0.04,-0.8 -0.04,-1.42l0 -0.09c0,-0.04 0.02,-0.05 0.06,-0.05l0.57 0.01c0.05,0 0.09,0.01 0.12,0.05 0.09,0.1 0.39,0.55 0.66,0.91 0.37,0.51 0.62,0.82 0.9,0.98 0.18,0.09 0.34,0.12 0.71,0.12l0.63 0c0.08,0 0.13,-0.01 0.13,-0.06 0,-0.04 -0.03,-0.06 -0.08,-0.06 -0.06,0 -0.12,0 -0.19,-0.02 -0.1,-0.02 -0.37,-0.06 -0.74,-0.45 -0.39,-0.41 -0.85,-1 -1.44,-1.74 0.67,-0.54 0.88,-0.99 0.88,-1.48 0,-0.45 -0.27,-0.78 -0.45,-0.91 -0.36,-0.24 -0.8,-0.28 -1.22,-0.28 -0.21,0 -0.71,0.02 -0.93,0.02 -0.14,0 -0.56,-0.02 -0.91,-0.02 -0.1,0 -0.15,0.01 -0.15,0.06 0,0.04 0.04,0.06 0.12,0.06 0.09,0 0.2,0 0.25,0.02 0.22,0.04 0.27,0.15 0.29,0.37 0.01,0.21 0.01,0.4 0.01,1.41l0 1.16zm0.78 -2.65c0,-0.06 0.02,-0.08 0.06,-0.1 0.07,-0.02 0.19,-0.02 0.35,-0.02 0.39,0 1.02,0.27 1.02,1.21 0,0.54 -0.2,0.85 -0.39,0.99 -0.12,0.09 -0.21,0.11 -0.47,0.11 -0.17,0 -0.37,-0.02 -0.51,-0.06 -0.04,-0.02 -0.06,-0.05 -0.06,-0.12l0 -2.01z"/>
  <path id="_21" class="fil0" d="M33.93 20.8c0,0.61 0,1.13 -0.03,1.41 -0.03,0.19 -0.06,0.34 -0.2,0.37 -0.06,0.01 -0.13,0.02 -0.23,0.02 -0.08,0 -0.11,0.02 -0.11,0.06 0,0.04 0.05,0.06 0.13,0.06 0.13,0 0.31,-0.01 0.46,-0.01 0.16,-0.01 0.3,-0.01 0.38,-0.01 0.2,0 0.4,0.01 0.69,0.02 0.28,0.01 0.64,0.02 1.14,0.02 0.25,0 0.31,0 0.36,-0.17 0.03,-0.13 0.08,-0.58 0.08,-0.74 0,-0.06 0,-0.11 -0.05,-0.11 -0.05,0 -0.06,0.02 -0.07,0.09 -0.05,0.28 -0.13,0.41 -0.3,0.49 -0.17,0.08 -0.45,0.08 -0.62,0.08 -0.68,0 -0.78,-0.1 -0.8,-0.55 0,-0.19 0,-0.8 0,-1.03l0 -0.52c0,-0.04 0.01,-0.07 0.04,-0.07 0.16,0 0.82,0.01 0.94,0.02 0.25,0.03 0.34,0.13 0.37,0.26 0.02,0.09 0.02,0.17 0.03,0.24 0,0.03 0.01,0.06 0.06,0.06 0.06,0 0.06,-0.07 0.06,-0.13 0,-0.04 0.02,-0.31 0.03,-0.44 0.02,-0.34 0.05,-0.44 0.05,-0.48 0,-0.04 -0.02,-0.06 -0.05,-0.06 -0.03,0 -0.06,0.04 -0.1,0.09 -0.06,0.07 -0.16,0.08 -0.32,0.1 -0.15,0.01 -0.91,0.01 -1.06,0.01 -0.04,0 -0.05,-0.03 -0.05,-0.07l0 -1.68c0,-0.04 0.02,-0.06 0.05,-0.06 0.13,0 0.83,0.01 0.94,0.02 0.33,0.04 0.4,0.12 0.44,0.24 0.04,0.08 0.04,0.19 0.04,0.24 0,0.06 0.02,0.09 0.06,0.09 0.05,0 0.06,-0.04 0.07,-0.07 0.01,-0.08 0.03,-0.37 0.03,-0.44 0.02,-0.3 0.05,-0.38 0.05,-0.43 0,-0.03 0,-0.06 -0.03,-0.06 -0.04,0 -0.08,0.02 -0.11,0.03 -0.05,0.01 -0.16,0.03 -0.29,0.04 -0.12,0.01 -1.44,0.01 -1.65,0.01 -0.09,0 -0.25,-0.01 -0.42,-0.02 -0.16,0 -0.35,0 -0.53,0 -0.1,0 -0.15,0.01 -0.15,0.06 0,0.04 0.04,0.06 0.11,0.06 0.1,0 0.21,0 0.26,0.02 0.22,0.04 0.27,0.15 0.29,0.37 0.01,0.21 0.01,0.4 0.01,1.41l0 1.16z"/>
  <path id="_22" class="fil0" d="M38.72 22.81c0.35,0 0.72,-0.06 1.05,-0.27 0.47,-0.31 0.62,-0.77 0.62,-1.15 0,-0.63 -0.28,-1.08 -1.09,-1.69l-0.18 -0.14c-0.55,-0.41 -0.7,-0.65 -0.7,-0.95 0,-0.4 0.3,-0.68 0.79,-0.68 0.43,0 0.62,0.2 0.72,0.32 0.14,0.18 0.17,0.38 0.17,0.44 0,0.08 0.02,0.12 0.07,0.12 0.05,0 0.07,-0.05 0.07,-0.2 0,-0.52 0.02,-0.71 0.02,-0.79 0,-0.05 -0.03,-0.07 -0.09,-0.08 -0.17,-0.05 -0.45,-0.12 -0.88,-0.12 -0.92,0 -1.53,0.53 -1.53,1.26 0,0.53 0.25,0.99 0.98,1.56l0.31 0.24c0.55,0.43 0.65,0.74 0.65,1.06 0,0.35 -0.3,0.76 -0.89,0.76 -0.41,0 -0.8,-0.18 -0.95,-0.67 -0.03,-0.11 -0.06,-0.25 -0.06,-0.34 0,-0.05 0,-0.11 -0.06,-0.11 -0.06,0 -0.08,0.07 -0.08,0.17 -0.01,0.11 -0.04,0.5 -0.04,0.87 0,0.14 0.02,0.18 0.13,0.22 0.28,0.13 0.58,0.17 0.97,0.17z"/>
  <path id="_23" class="fil0" d="M43.91 22.81c1.68,0 2.74,-1.19 2.74,-2.71 0,-1.52 -1.02,-2.48 -2.67,-2.48 -1.99,0 -2.74,1.47 -2.74,2.6 0,1.17 0.77,2.59 2.67,2.59zm0.28 -0.33c-1.27,0 -2.03,-1.09 -2.03,-2.47 0,-1.64 0.87,-2.07 1.63,-2.07 1.08,0 1.94,0.92 1.94,2.4 0,1.92 -1.08,2.14 -1.54,2.14z"/>
  <path id="_24" class="fil0" d="M47.82 20.6c0,0.96 0.25,1.45 0.59,1.76 0.48,0.43 1.12,0.45 1.47,0.45 0.43,0 0.9,-0.07 1.37,-0.47 0.56,-0.48 0.63,-1.26 0.63,-2l0 -0.7c0,-1.01 0,-1.2 0.02,-1.41 0.01,-0.23 0.06,-0.34 0.24,-0.37 0.08,-0.02 0.12,-0.02 0.19,-0.02 0.08,0 0.12,-0.02 0.12,-0.06 0,-0.05 -0.04,-0.06 -0.14,-0.06 -0.26,0 -0.67,0.02 -0.75,0.02 -0.01,0 -0.43,-0.02 -0.76,-0.02 -0.1,0 -0.14,0.01 -0.14,0.06 0,0.04 0.04,0.06 0.11,0.06 0.07,0 0.19,0 0.24,0.02 0.22,0.04 0.27,0.15 0.28,0.37 0.02,0.21 0.02,0.4 0.02,1.41l0 0.82c0,0.69 -0.02,1.28 -0.39,1.65 -0.26,0.26 -0.62,0.35 -0.91,0.35 -0.23,0 -0.53,-0.02 -0.83,-0.27 -0.32,-0.26 -0.51,-0.67 -0.51,-1.63l0 -0.92c0,-1.01 0,-1.2 0.01,-1.41 0.01,-0.23 0.06,-0.34 0.24,-0.37 0.08,-0.02 0.12,-0.02 0.2,-0.02 0.06,0 0.1,-0.02 0.1,-0.06 0,-0.05 -0.05,-0.06 -0.14,-0.06 -0.24,0 -0.66,0.02 -0.82,0.02 -0.2,0 -0.61,-0.02 -0.97,-0.02 -0.09,0 -0.14,0.01 -0.14,0.06 0,0.04 0.04,0.06 0.11,0.06 0.09,0 0.21,0 0.26,0.02 0.22,0.04 0.27,0.15 0.28,0.37 0.02,0.21 0.02,0.4 0.02,1.41l0 0.96z"/>
  <path id="_25" class="fil0" d="M53.74 20.8c0,0.61 0,1.13 -0.03,1.41 -0.03,0.19 -0.06,0.34 -0.19,0.37 -0.06,0.01 -0.14,0.02 -0.24,0.02 -0.08,0 -0.11,0.02 -0.11,0.06 0,0.04 0.05,0.06 0.14,0.06 0.26,0 0.68,-0.02 0.8,-0.02 0.1,0 0.59,0.02 0.98,0.02 0.08,0 0.13,-0.02 0.13,-0.06 0,-0.04 -0.03,-0.06 -0.08,-0.06 -0.08,0 -0.23,-0.01 -0.32,-0.02 -0.2,-0.03 -0.24,-0.18 -0.26,-0.37 -0.04,-0.28 -0.04,-0.8 -0.04,-1.42l0 -0.09c0,-0.04 0.02,-0.05 0.06,-0.05l0.57 0.01c0.05,0 0.09,0.01 0.12,0.05 0.09,0.1 0.39,0.55 0.66,0.91 0.37,0.51 0.62,0.82 0.9,0.98 0.18,0.09 0.34,0.12 0.71,0.12l0.63 0c0.08,0 0.13,-0.01 0.13,-0.06 0,-0.04 -0.03,-0.06 -0.08,-0.06 -0.06,0 -0.11,0 -0.19,-0.02 -0.1,-0.02 -0.37,-0.06 -0.74,-0.45 -0.39,-0.41 -0.85,-1 -1.44,-1.74 0.67,-0.54 0.88,-0.99 0.88,-1.48 0,-0.45 -0.27,-0.78 -0.45,-0.91 -0.36,-0.24 -0.8,-0.28 -1.22,-0.28 -0.21,0 -0.71,0.02 -0.93,0.02 -0.14,0 -0.56,-0.02 -0.91,-0.02 -0.1,0 -0.15,0.01 -0.15,0.06 0,0.04 0.04,0.06 0.12,0.06 0.09,0 0.2,0 0.25,0.02 0.22,0.04 0.28,0.15 0.29,0.37 0.01,0.21 0.01,0.4 0.01,1.41l0 1.16zm0.78 -2.65c0,-0.06 0.02,-0.08 0.06,-0.1 0.07,-0.02 0.19,-0.02 0.35,-0.02 0.39,0 1.02,0.27 1.02,1.21 0,0.54 -0.19,0.85 -0.39,0.99 -0.12,0.09 -0.21,0.11 -0.47,0.11 -0.17,0 -0.37,-0.02 -0.51,-0.06 -0.04,-0.02 -0.06,-0.05 -0.06,-0.12l0 -2.01z"/>
  <path id="_26" class="fil0" d="M61.08 22.81c0.42,0 0.92,-0.04 1.19,-0.15 0.11,-0.04 0.14,-0.08 0.17,-0.19 0.07,-0.23 0.15,-0.8 0.15,-0.88 0,-0.05 -0.02,-0.1 -0.06,-0.1 -0.06,0 -0.07,0.03 -0.09,0.13 -0.03,0.12 -0.11,0.31 -0.22,0.44 -0.27,0.3 -0.63,0.37 -1.22,0.37 -0.88,0 -2.08,-0.78 -2.08,-2.36 0,-0.64 0.13,-1.27 0.61,-1.71 0.29,-0.27 0.67,-0.41 1.24,-0.41 0.61,0 1.13,0.18 1.35,0.41 0.16,0.17 0.25,0.4 0.25,0.61 0,0.09 0.02,0.14 0.07,0.14 0.06,0 0.07,-0.05 0.08,-0.15 0.01,-0.13 0.01,-0.5 0.02,-0.71 0.01,-0.24 0.03,-0.31 0.03,-0.37 0,-0.04 -0.02,-0.07 -0.1,-0.08 -0.19,-0.02 -0.41,-0.08 -0.66,-0.11 -0.3,-0.04 -0.55,-0.07 -0.96,-0.07 -0.98,0 -1.61,0.27 -2.09,0.71 -0.63,0.58 -0.77,1.36 -0.77,1.81 0,0.64 0.17,1.38 0.82,1.95 0.6,0.53 1.36,0.72 2.27,0.72z"/>
  <path id="_27" class="fil0" d="M64 20.8c0,0.61 0,1.13 -0.03,1.41 -0.03,0.19 -0.06,0.34 -0.19,0.37 -0.06,0.01 -0.14,0.02 -0.24,0.02 -0.08,0 -0.11,0.02 -0.11,0.06 0,0.04 0.05,0.06 0.14,0.06 0.13,0 0.3,-0.01 0.45,-0.01 0.16,-0.01 0.31,-0.01 0.38,-0.01 0.2,0 0.4,0.01 0.69,0.02 0.28,0.01 0.65,0.02 1.14,0.02 0.26,0 0.32,0 0.36,-0.17 0.03,-0.13 0.09,-0.58 0.09,-0.74 0,-0.06 0,-0.11 -0.06,-0.11 -0.04,0 -0.05,0.02 -0.07,0.09 -0.04,0.28 -0.12,0.41 -0.3,0.49 -0.17,0.08 -0.45,0.08 -0.62,0.08 -0.67,0 -0.78,-0.1 -0.79,-0.55 -0.01,-0.19 0,-0.8 0,-1.03l0 -0.52c0,-0.04 0,-0.07 0.04,-0.07 0.16,0 0.81,0.01 0.94,0.02 0.24,0.03 0.33,0.13 0.37,0.26 0.02,0.09 0.02,0.17 0.02,0.24 0,0.03 0.02,0.06 0.06,0.06 0.06,0 0.06,-0.07 0.06,-0.13 0,-0.04 0.02,-0.31 0.03,-0.44 0.03,-0.34 0.05,-0.44 0.05,-0.48 0,-0.04 -0.02,-0.06 -0.04,-0.06 -0.04,0 -0.06,0.04 -0.11,0.09 -0.06,0.07 -0.16,0.08 -0.32,0.1 -0.15,0.01 -0.91,0.01 -1.06,0.01 -0.04,0 -0.04,-0.03 -0.04,-0.07l0 -1.68c0,-0.04 0.01,-0.06 0.04,-0.06 0.14,0 0.83,0.01 0.94,0.02 0.33,0.04 0.4,0.12 0.45,0.24 0.03,0.08 0.04,0.19 0.04,0.24 0,0.06 0.01,0.09 0.06,0.09 0.04,0 0.06,-0.04 0.06,-0.07 0.02,-0.08 0.03,-0.37 0.04,-0.44 0.02,-0.3 0.05,-0.38 0.05,-0.43 0,-0.03 -0.01,-0.06 -0.04,-0.06 -0.03,0 -0.07,0.02 -0.11,0.03 -0.05,0.01 -0.16,0.03 -0.28,0.04 -0.13,0.01 -1.44,0.01 -1.66,0.01 -0.09,0 -0.24,-0.01 -0.41,-0.02 -0.17,0 -0.36,0 -0.54,0 -0.1,0 -0.15,0.01 -0.15,0.06 0,0.04 0.04,0.06 0.12,0.06 0.09,0 0.2,0 0.26,0.02 0.21,0.04 0.27,0.15 0.28,0.37 0.01,0.21 0.01,0.4 0.01,1.41l0 1.16z"/>
  <g id="_105553252143648">
   <g>
    <g>
     <g>
      <path class="fil1" d="M18.67 23.16c0.04,0.28 0.21,0.5 0.37,0.63 0.16,0.14 0.33,0.2 0.33,0.2 0,0 0.03,-0.04 0.07,-0.12 0.05,-0.08 0.11,-0.19 0.16,-0.32 0.06,-0.12 0.11,-0.27 0.14,-0.41 0.02,-0.15 0.02,-0.3 -0.02,-0.44 -0.07,-0.28 -0.27,-0.46 -0.44,-0.58 -0.18,-0.12 -0.33,-0.17 -0.33,-0.17 0,0 -0.02,0.04 -0.05,0.12 -0.03,0.06 -0.07,0.16 -0.11,0.28 -0.09,0.22 -0.15,0.54 -0.12,0.81z"/>
      <path class="fil1" d="M19.93 22.17c0.08,0.26 0.27,0.44 0.45,0.54 0.18,0.11 0.34,0.14 0.34,0.14 0,0 0.09,-0.2 0.16,-0.45 0.03,-0.13 0.06,-0.27 0.07,-0.42 -0.01,-0.15 -0.03,-0.29 -0.08,-0.42 -0.12,-0.26 -0.33,-0.4 -0.52,-0.49 -0.18,-0.09 -0.33,-0.12 -0.33,-0.12 0,0 -0.01,0.05 -0.03,0.12 -0.02,0.08 -0.05,0.18 -0.07,0.29 -0.05,0.23 -0.07,0.54 0.01,0.81z"/>
      <path class="fil1" d="M20.99 21c0.12,0.24 0.33,0.38 0.51,0.45 0.19,0.08 0.34,0.08 0.34,0.08 0,0 0.06,-0.2 0.09,-0.45 0.04,-0.26 0.01,-0.58 -0.14,-0.81 -0.14,-0.23 -0.37,-0.34 -0.56,-0.39 -0.18,-0.06 -0.33,-0.06 -0.33,-0.06 0,0 -0.01,0.04 -0.02,0.12 0,0.07 -0.01,0.17 -0.02,0.29 -0.01,0.23 0.01,0.52 0.13,0.77z"/>
      <path class="fil1" d="M21.83 19.7c0.16,0.21 0.37,0.32 0.56,0.36 0.18,0.05 0.33,0.03 0.33,0.03 0,0 0.03,-0.2 0.02,-0.45 0,-0.25 -0.08,-0.55 -0.25,-0.75 -0.17,-0.21 -0.4,-0.28 -0.59,-0.3 -0.19,-0.03 -0.33,-0.01 -0.33,-0.01 0,0 0,0.04 0,0.11 0.01,0.07 0.02,0.18 0.03,0.29 0.02,0.22 0.08,0.5 0.23,0.72z"/>
      <path class="fil1" d="M22.45 18.31c0.17,0.18 0.4,0.25 0.58,0.27 0.18,0.02 0.32,-0.02 0.32,-0.02 0,0 0,-0.2 -0.05,-0.44 -0.02,-0.11 -0.05,-0.24 -0.11,-0.36 -0.06,-0.13 -0.14,-0.24 -0.23,-0.32 -0.19,-0.17 -0.43,-0.21 -0.61,-0.21 -0.18,0 -0.31,0.04 -0.31,0.04 0,0 0,0.04 0.02,0.11 0.01,0.07 0.03,0.16 0.06,0.27 0.05,0.21 0.15,0.47 0.33,0.66z"/>
      <path class="fil1" d="M22.83 16.87c0.19,0.15 0.41,0.19 0.59,0.18 0.18,-0.01 0.3,-0.06 0.3,-0.06 0,0 -0.03,-0.19 -0.11,-0.41 -0.08,-0.22 -0.2,-0.48 -0.41,-0.62 -0.21,-0.13 -0.44,-0.14 -0.61,-0.11 -0.18,0.02 -0.3,0.08 -0.3,0.08 0,0 0.01,0.04 0.04,0.1 0.02,0.06 0.05,0.15 0.09,0.25 0.08,0.19 0.21,0.43 0.41,0.59z"/>
      <path class="fil1" d="M22.98 15.41c0.2,0.13 0.42,0.13 0.58,0.1 0.17,-0.03 0.29,-0.09 0.29,-0.09 0,0 -0.01,-0.05 -0.03,-0.12 -0.03,-0.07 -0.07,-0.16 -0.12,-0.26 -0.11,-0.21 -0.27,-0.43 -0.48,-0.54 -0.22,-0.1 -0.44,-0.08 -0.6,-0.04 -0.16,0.05 -0.27,0.12 -0.27,0.12 0,0 0.02,0.03 0.04,0.09 0.03,0.06 0.07,0.14 0.12,0.23 0.11,0.18 0.28,0.39 0.47,0.51z"/>
      <path class="fil1" d="M22.92 13.98c0.21,0.1 0.42,0.07 0.57,0.02 0.16,-0.04 0.26,-0.12 0.26,-0.12 0,0 -0.01,-0.04 -0.04,-0.11 -0.03,-0.06 -0.09,-0.14 -0.15,-0.23 -0.13,-0.18 -0.32,-0.38 -0.53,-0.46 -0.22,-0.07 -0.42,-0.02 -0.57,0.04 -0.15,0.06 -0.25,0.14 -0.25,0.14 0,0 0.07,0.13 0.2,0.29 0.13,0.16 0.31,0.34 0.51,0.43z"/>
      <path class="fil1" d="M22.66 12.6c0.21,0.07 0.41,0.02 0.55,-0.04 0.14,-0.07 0.23,-0.15 0.23,-0.15 0,0 -0.02,-0.04 -0.06,-0.1 -0.04,-0.05 -0.09,-0.13 -0.16,-0.21 -0.15,-0.15 -0.36,-0.32 -0.57,-0.36 -0.22,-0.05 -0.4,0.02 -0.54,0.1 -0.14,0.07 -0.22,0.16 -0.22,0.16 0,0 0.09,0.12 0.23,0.25 0.07,0.07 0.16,0.14 0.25,0.2 0.09,0.07 0.19,0.12 0.29,0.15z"/>
      <path class="fil1" d="M22.22 11.3c0.21,0.04 0.39,-0.03 0.52,-0.1 0.13,-0.08 0.2,-0.17 0.2,-0.17 0,0 -0.1,-0.13 -0.25,-0.27 -0.16,-0.13 -0.38,-0.26 -0.59,-0.28 -0.21,-0.02 -0.38,0.07 -0.5,0.16 -0.12,0.09 -0.19,0.18 -0.19,0.18 0,0 0.09,0.1 0.25,0.21 0.16,0.11 0.35,0.24 0.56,0.27z"/>
      <path class="fil1" d="M21.61 10.1c0.21,0.01 0.38,-0.07 0.49,-0.16 0.11,-0.09 0.17,-0.18 0.17,-0.18 0,0 -0.11,-0.11 -0.27,-0.22 -0.16,-0.11 -0.4,-0.21 -0.6,-0.21 -0.21,0.01 -0.36,0.11 -0.46,0.21 -0.11,0.1 -0.16,0.19 -0.16,0.19 0,0 0.1,0.09 0.27,0.17 0.16,0.09 0.36,0.19 0.56,0.2z"/>
      <path class="fil1" d="M20.87 9.01c0.2,-0.01 0.35,-0.1 0.44,-0.2 0.1,-0.1 0.15,-0.19 0.15,-0.19 0,0 -0.12,-0.09 -0.29,-0.18 -0.09,-0.04 -0.18,-0.08 -0.28,-0.11 -0.11,-0.02 -0.21,-0.03 -0.31,-0.02 -0.2,0.03 -0.34,0.14 -0.43,0.24 -0.08,0.11 -0.13,0.2 -0.13,0.2 0,0 0.12,0.07 0.29,0.14 0.15,0.07 0.36,0.14 0.56,0.12z"/>
      <path class="fil1" d="M20.01 8.05c0.19,-0.03 0.32,-0.14 0.4,-0.24 0.09,-0.1 0.12,-0.19 0.12,-0.19 0,0 -0.13,-0.07 -0.3,-0.13 -0.17,-0.06 -0.38,-0.12 -0.57,-0.07 -0.19,0.04 -0.31,0.16 -0.39,0.27 -0.07,0.11 -0.1,0.2 -0.1,0.2 0,0 0.03,0.01 0.08,0.03 0.05,0.02 0.12,0.05 0.2,0.07 0.16,0.05 0.37,0.1 0.56,0.06z"/>
      <path class="fil1" d="M19.05 7.23c0.17,-0.05 0.29,-0.16 0.36,-0.27 0.07,-0.1 0.09,-0.19 0.09,-0.19 0,0 -0.03,-0.02 -0.08,-0.04 -0.05,-0.02 -0.13,-0.04 -0.21,-0.06 -0.17,-0.04 -0.39,-0.06 -0.56,0 -0.18,0.05 -0.28,0.18 -0.34,0.28 -0.06,0.11 -0.08,0.21 -0.08,0.21 0,0 0.12,0.04 0.28,0.07 0.15,0.03 0.36,0.04 0.54,0z"/>
     </g>
     <g>
      <path class="fil1" d="M19.89 24.93c-0.28,-0.13 -0.4,-0.37 -0.46,-0.57 -0.06,-0.2 -0.06,-0.37 -0.06,-0.37 0,0 0.05,-0.01 0.14,-0.04 0.08,-0.02 0.2,-0.05 0.34,-0.07 0.14,-0.03 0.3,-0.04 0.46,-0.04 0.16,0 0.31,0 0.46,0.05 0.28,0.09 0.44,0.31 0.52,0.51 0.08,0.2 0.09,0.38 0.09,0.38 0,0 -0.06,0.03 -0.15,0.07 -0.1,0.03 -0.24,0.07 -0.39,0.11 -0.31,0.06 -0.67,0.1 -0.95,-0.03z"/>
      <path class="fil1" d="M21.39 23.67c-0.29,-0.08 -0.44,-0.29 -0.54,-0.47 -0.09,-0.18 -0.12,-0.34 -0.12,-0.34 0,0 0.18,-0.1 0.44,-0.19 0.13,-0.05 0.29,-0.09 0.44,-0.12 0.14,-0.03 0.3,-0.04 0.44,-0.02 0.28,0.04 0.47,0.22 0.58,0.4 0.12,0.17 0.15,0.34 0.15,0.34 0,0 -0.05,0.04 -0.13,0.09 -0.08,0.05 -0.21,0.11 -0.35,0.17 -0.28,0.11 -0.63,0.21 -0.91,0.14z"/>
      <path class="fil1" d="M22.63 22.2c-0.28,-0.02 -0.47,-0.19 -0.59,-0.35 -0.12,-0.16 -0.18,-0.3 -0.18,-0.3 0,0 0.16,-0.13 0.4,-0.26 0.24,-0.12 0.53,-0.27 0.81,-0.27 0.28,-0.01 0.49,0.13 0.63,0.28 0.13,0.14 0.19,0.3 0.19,0.3 0,0 -0.04,0.04 -0.11,0.1 -0.07,0.06 -0.17,0.15 -0.3,0.22 -0.26,0.16 -0.58,0.3 -0.85,0.28z"/>
      <path class="fil1" d="M23.59 20.6c-0.27,0.02 -0.48,-0.11 -0.62,-0.24 -0.14,-0.13 -0.22,-0.26 -0.22,-0.26 0,0 0.13,-0.14 0.34,-0.3 0.21,-0.16 0.46,-0.35 0.73,-0.4 0.27,-0.05 0.49,0.05 0.64,0.16 0.16,0.12 0.24,0.25 0.24,0.25 0,0 -0.03,0.05 -0.09,0.12 -0.06,0.07 -0.14,0.17 -0.25,0.26 -0.22,0.19 -0.51,0.38 -0.77,0.41z"/>
      <path class="fil1" d="M24.26 18.9c-0.25,0.07 -0.47,-0.02 -0.62,-0.12 -0.16,-0.1 -0.26,-0.21 -0.26,-0.21 0,0 0.11,-0.16 0.28,-0.35 0.08,-0.09 0.19,-0.19 0.29,-0.27 0.11,-0.09 0.22,-0.17 0.35,-0.22 0.24,-0.09 0.47,-0.04 0.64,0.05 0.16,0.08 0.26,0.2 0.26,0.2 0,0 -0.02,0.05 -0.07,0.12 -0.04,0.08 -0.11,0.19 -0.2,0.29 -0.18,0.21 -0.42,0.44 -0.67,0.51z"/>
      <path class="fil1" d="M24.66 17.17c-0.24,0.1 -0.46,0.05 -0.62,-0.01 -0.16,-0.07 -0.27,-0.16 -0.27,-0.16 0,0 0.07,-0.18 0.2,-0.38 0.14,-0.2 0.33,-0.44 0.54,-0.57 0.22,-0.13 0.44,-0.11 0.61,-0.06 0.18,0.06 0.29,0.15 0.29,0.15 0,0 -0.01,0.05 -0.04,0.13 -0.03,0.08 -0.09,0.19 -0.16,0.3 -0.13,0.23 -0.32,0.49 -0.55,0.6z"/>
      <path class="fil1" d="M24.77 15.43c-0.21,0.14 -0.42,0.13 -0.59,0.1 -0.16,-0.04 -0.28,-0.11 -0.28,-0.11 0,0 0.02,-0.05 0.05,-0.12 0.02,-0.07 0.05,-0.16 0.1,-0.27 0.09,-0.21 0.23,-0.47 0.43,-0.63 0.19,-0.15 0.4,-0.17 0.57,-0.15 0.17,0.03 0.3,0.09 0.3,0.09 0,0 -0.01,0.05 -0.03,0.14 -0.02,0.08 -0.06,0.19 -0.1,0.31 -0.1,0.24 -0.23,0.5 -0.45,0.64z"/>
      <path class="fil1" d="M24.64 13.75c-0.18,0.17 -0.38,0.19 -0.55,0.18 -0.16,-0.01 -0.28,-0.06 -0.28,-0.06 0,0 0.01,-0.04 0.02,-0.11 0.02,-0.08 0.04,-0.17 0.07,-0.28 0.05,-0.22 0.15,-0.48 0.31,-0.66 0.16,-0.18 0.36,-0.23 0.53,-0.24 0.16,0 0.29,0.04 0.29,0.04 0,0 -0.01,0.2 -0.06,0.44 -0.05,0.25 -0.15,0.52 -0.33,0.69z"/>
      <path class="fil1" d="M24.27 12.14c-0.14,0.19 -0.33,0.25 -0.49,0.26 -0.15,0.01 -0.27,-0.01 -0.27,-0.01 0,0 0,-0.05 0,-0.11 0,-0.07 0.02,-0.17 0.02,-0.28 0.02,-0.21 0.07,-0.48 0.2,-0.68 0.13,-0.19 0.31,-0.27 0.47,-0.3 0.15,-0.03 0.27,-0.01 0.27,-0.01 0,0 0.03,0.19 0.01,0.43 0,0.12 -0.02,0.25 -0.05,0.37 -0.03,0.12 -0.08,0.24 -0.16,0.33z"/>
      <path class="fil1" d="M23.7 10.65c-0.11,0.19 -0.28,0.28 -0.43,0.32 -0.14,0.03 -0.26,0.03 -0.26,0.03 0,0 -0.03,-0.16 -0.03,-0.38 -0.01,-0.2 0,-0.46 0.09,-0.67 0.09,-0.2 0.25,-0.31 0.39,-0.36 0.14,-0.05 0.26,-0.05 0.26,-0.05 0,0 0.05,0.18 0.08,0.4 0.03,0.23 0,0.51 -0.1,0.71z"/>
      <path class="fil1" d="M22.94 9.28c-0.07,0.2 -0.23,0.31 -0.36,0.37 -0.13,0.06 -0.24,0.07 -0.24,0.07 0,0 -0.05,-0.15 -0.08,-0.35 -0.03,-0.21 -0.07,-0.45 -0.01,-0.66 0.06,-0.2 0.19,-0.33 0.32,-0.4 0.12,-0.07 0.24,-0.08 0.24,-0.08 0,0 0.07,0.16 0.12,0.37 0.06,0.2 0.08,0.48 0.01,0.68z"/>
      <path class="fil1" d="M22.02 8.06c-0.03,0.2 -0.16,0.33 -0.27,0.4 -0.12,0.08 -0.22,0.1 -0.22,0.1 0,0 -0.07,-0.13 -0.13,-0.32 -0.03,-0.09 -0.06,-0.19 -0.08,-0.3 -0.02,-0.11 -0.03,-0.22 -0.02,-0.32 0.03,-0.2 0.14,-0.34 0.24,-0.43 0.11,-0.08 0.22,-0.11 0.22,-0.11 0,0 0.09,0.14 0.17,0.33 0.07,0.2 0.13,0.45 0.09,0.65z"/>
      <path class="fil1" d="M20.99 7c-0.01,0.2 -0.11,0.33 -0.2,0.42 -0.1,0.09 -0.19,0.13 -0.19,0.13 0,0 -0.09,-0.12 -0.17,-0.28 -0.09,-0.17 -0.17,-0.39 -0.18,-0.59 -0.01,-0.19 0.08,-0.34 0.17,-0.43 0.09,-0.1 0.18,-0.15 0.18,-0.15 0,0 0.03,0.03 0.06,0.08 0.04,0.05 0.09,0.13 0.14,0.22 0.1,0.17 0.19,0.4 0.19,0.6z"/>
      <path class="fil1" d="M19.85 6.1c0.02,0.2 -0.05,0.34 -0.13,0.44 -0.08,0.1 -0.16,0.15 -0.16,0.15 0,0 -0.02,-0.03 -0.05,-0.08 -0.04,-0.04 -0.09,-0.1 -0.14,-0.17 -0.1,-0.15 -0.22,-0.34 -0.25,-0.53 -0.03,-0.19 0.03,-0.34 0.1,-0.45 0.07,-0.1 0.14,-0.15 0.14,-0.15 0,0 0.11,0.1 0.23,0.25 0.12,0.16 0.24,0.35 0.26,0.54z"/>
     </g>
     <path class="fil1" d="M17.35 25c1.58,-0.66 2.98,-1.73 4.06,-3.05 1.28,-1.56 2.11,-3.49 2.31,-5.5 0.22,-2 -0.14,-4.06 -1.05,-5.87 -0.9,-1.8 -2.33,-3.33 -4.07,-4.35 -0.05,-0.04 -0.07,-0.1 -0.05,-0.14 0.03,-0.05 0.1,-0.06 0.15,-0.03 1.77,1.04 3.23,2.6 4.14,4.44 0.93,1.83 1.29,3.94 1.07,5.97 -0.21,2.05 -1.05,4.01 -2.35,5.6 -1.12,1.37 -2.57,2.46 -4.21,3.14l0 -0.21z"/>
     <path class="fil1" d="M18.28 5.6c0.21,0.11 0.36,0.28 0.45,0.42 0.05,0.07 0.08,0.13 0.1,0.18 0.02,0.05 0.03,0.08 0.03,0.08 0,0 -0.03,0 -0.08,0 -0.05,0 -0.12,0 -0.2,0 -0.17,-0.02 -0.39,-0.05 -0.58,-0.16 -0.2,-0.11 -0.35,-0.26 -0.45,-0.39 -0.1,-0.13 -0.16,-0.24 -0.16,-0.24 0,0 0.11,-0.03 0.28,-0.03 0.17,0 0.4,0.03 0.61,0.14z"/>
    </g>
    <g>
     <g>
      <path class="fil1" d="M6.49 24.93c0.27,-0.13 0.4,-0.37 0.46,-0.57 0.06,-0.2 0.06,-0.37 0.06,-0.37 0,0 -0.06,-0.01 -0.14,-0.04 -0.09,-0.02 -0.21,-0.05 -0.35,-0.07 -0.14,-0.03 -0.29,-0.04 -0.45,-0.04 -0.16,0 -0.32,0 -0.46,0.05 -0.28,0.09 -0.44,0.31 -0.52,0.51 -0.08,0.2 -0.09,0.38 -0.09,0.38 0,0 0.06,0.03 0.15,0.07 0.1,0.03 0.24,0.07 0.39,0.11 0.31,0.06 0.67,0.1 0.95,-0.03z"/>
      <path class="fil1" d="M4.99 23.67c0.28,-0.08 0.44,-0.29 0.54,-0.47 0.09,-0.18 0.12,-0.34 0.12,-0.34 0,0 -0.19,-0.1 -0.45,-0.19 -0.13,-0.05 -0.28,-0.09 -0.43,-0.12 -0.15,-0.03 -0.3,-0.04 -0.44,-0.02 -0.29,0.04 -0.48,0.22 -0.59,0.4 -0.11,0.17 -0.15,0.34 -0.15,0.34 0,0 0.06,0.04 0.14,0.09 0.08,0.05 0.21,0.11 0.35,0.17 0.28,0.11 0.63,0.21 0.91,0.14z"/>
      <path class="fil1" d="M3.75 22.2c0.28,-0.02 0.47,-0.19 0.59,-0.35 0.12,-0.16 0.18,-0.3 0.18,-0.3 0,0 -0.16,-0.13 -0.4,-0.26 -0.24,-0.12 -0.53,-0.27 -0.81,-0.27 -0.28,-0.01 -0.49,0.13 -0.63,0.28 -0.13,0.14 -0.2,0.3 -0.2,0.3 0,0 0.05,0.04 0.12,0.1 0.07,0.06 0.17,0.15 0.3,0.22 0.25,0.16 0.57,0.3 0.85,0.28z"/>
      <path class="fil1" d="M2.79 20.6c0.27,0.02 0.48,-0.11 0.62,-0.24 0.14,-0.13 0.22,-0.26 0.22,-0.26 0,0 -0.13,-0.14 -0.34,-0.3 -0.21,-0.16 -0.46,-0.35 -0.73,-0.4 -0.27,-0.05 -0.49,0.05 -0.65,0.16 -0.15,0.12 -0.23,0.25 -0.23,0.25 0,0 0.03,0.05 0.09,0.12 0.06,0.07 0.14,0.17 0.25,0.26 0.22,0.19 0.5,0.38 0.77,0.41z"/>
      <path class="fil1" d="M2.12 18.9c0.25,0.07 0.47,-0.02 0.62,-0.12 0.16,-0.1 0.26,-0.21 0.26,-0.21 0,0 -0.11,-0.16 -0.28,-0.35 -0.09,-0.09 -0.19,-0.19 -0.3,-0.27 -0.1,-0.09 -0.22,-0.17 -0.34,-0.22 -0.24,-0.09 -0.47,-0.04 -0.64,0.05 -0.16,0.08 -0.27,0.2 -0.27,0.2 0,0 0.03,0.05 0.07,0.12 0.05,0.08 0.11,0.19 0.21,0.29 0.17,0.21 0.41,0.44 0.67,0.51z"/>
      <path class="fil1" d="M1.72 17.17c0.23,0.1 0.46,0.05 0.62,-0.01 0.16,-0.07 0.27,-0.16 0.27,-0.16 0,0 -0.07,-0.18 -0.21,-0.38 -0.13,-0.2 -0.32,-0.44 -0.53,-0.57 -0.22,-0.13 -0.45,-0.11 -0.62,-0.06 -0.17,0.06 -0.28,0.15 -0.28,0.15 0,0 0.01,0.05 0.04,0.13 0.03,0.08 0.09,0.19 0.16,0.3 0.13,0.23 0.32,0.49 0.55,0.6z"/>
      <path class="fil1" d="M1.6 15.43c0.21,0.14 0.43,0.13 0.6,0.1 0.16,-0.04 0.27,-0.11 0.27,-0.11 0,0 -0.01,-0.05 -0.04,-0.12 -0.02,-0.07 -0.05,-0.16 -0.1,-0.27 -0.09,-0.21 -0.24,-0.47 -0.43,-0.63 -0.19,-0.15 -0.41,-0.17 -0.58,-0.15 -0.17,0.03 -0.29,0.09 -0.29,0.09 0,0 0.01,0.05 0.03,0.14 0.02,0.08 0.06,0.19 0.1,0.31 0.1,0.24 0.23,0.5 0.44,0.64z"/>
      <path class="fil1" d="M1.74 13.75c0.17,0.17 0.38,0.19 0.55,0.18 0.16,-0.01 0.28,-0.06 0.28,-0.06 0,0 -0.01,-0.04 -0.03,-0.11 -0.01,-0.08 -0.03,-0.17 -0.06,-0.28 -0.05,-0.22 -0.15,-0.48 -0.31,-0.66 -0.17,-0.18 -0.36,-0.23 -0.53,-0.24 -0.17,0 -0.29,0.04 -0.29,0.04 0,0 0.01,0.2 0.06,0.44 0.05,0.25 0.14,0.52 0.33,0.69z"/>
      <path class="fil1" d="M2.1 12.14c0.15,0.19 0.34,0.25 0.5,0.26 0.15,0.01 0.27,-0.01 0.27,-0.01 0,0 0,-0.05 0,-0.11 -0.01,-0.07 -0.02,-0.17 -0.03,-0.28 -0.01,-0.21 -0.07,-0.48 -0.19,-0.68 -0.13,-0.19 -0.32,-0.27 -0.47,-0.3 -0.15,-0.03 -0.28,-0.01 -0.28,-0.01 0,0 -0.02,0.19 -0.01,0.43 0.01,0.12 0.02,0.25 0.05,0.37 0.04,0.12 0.09,0.24 0.16,0.33z"/>
      <path class="fil1" d="M2.68 10.65c0.11,0.19 0.28,0.28 0.43,0.32 0.14,0.03 0.26,0.03 0.26,0.03 0,0 0.03,-0.16 0.03,-0.38 0.01,-0.2 0,-0.46 -0.09,-0.67 -0.09,-0.2 -0.26,-0.31 -0.4,-0.36 -0.14,-0.05 -0.26,-0.05 -0.26,-0.05 0,0 -0.05,0.18 -0.07,0.4 -0.03,0.23 -0.01,0.51 0.1,0.71z"/>
      <path class="fil1" d="M3.44 9.28c0.07,0.2 0.22,0.31 0.35,0.37 0.14,0.06 0.25,0.07 0.25,0.07 0,0 0.05,-0.15 0.08,-0.35 0.03,-0.21 0.07,-0.45 0.01,-0.66 -0.06,-0.2 -0.2,-0.33 -0.32,-0.4 -0.13,-0.07 -0.24,-0.08 -0.24,-0.08 0,0 -0.07,0.16 -0.13,0.37 -0.05,0.2 -0.07,0.48 0,0.68z"/>
      <path class="fil1" d="M4.35 8.06c0.04,0.2 0.17,0.33 0.28,0.4 0.12,0.08 0.22,0.1 0.22,0.1 0,0 0.07,-0.13 0.13,-0.32 0.03,-0.09 0.06,-0.19 0.08,-0.3 0.02,-0.11 0.03,-0.22 0.02,-0.32 -0.03,-0.2 -0.14,-0.34 -0.25,-0.43 -0.1,-0.08 -0.21,-0.11 -0.21,-0.11 0,0 -0.09,0.14 -0.17,0.33 -0.07,0.2 -0.13,0.45 -0.1,0.65z"/>
      <path class="fil1" d="M5.39 7c0,0.2 0.11,0.33 0.2,0.42 0.1,0.09 0.19,0.13 0.19,0.13 0,0 0.09,-0.12 0.17,-0.28 0.09,-0.17 0.17,-0.39 0.18,-0.59 0,-0.19 -0.08,-0.34 -0.17,-0.43 -0.09,-0.1 -0.18,-0.15 -0.18,-0.15 0,0 -0.03,0.03 -0.07,0.08 -0.04,0.05 -0.09,0.13 -0.13,0.22 -0.1,0.17 -0.2,0.4 -0.19,0.6z"/>
      <path class="fil1" d="M6.52 6.1c-0.02,0.2 0.06,0.34 0.14,0.44 0.07,0.1 0.15,0.15 0.15,0.15 0,0 0.03,-0.03 0.06,-0.08 0.04,-0.04 0.08,-0.1 0.14,-0.17 0.1,-0.15 0.22,-0.34 0.25,-0.53 0.03,-0.19 -0.03,-0.34 -0.1,-0.45 -0.07,-0.1 -0.15,-0.15 -0.15,-0.15 0,0 -0.11,0.1 -0.22,0.25 -0.12,0.16 -0.24,0.35 -0.27,0.54z"/>
     </g>
     <g>
      <path class="fil1" d="M7.71 23.16c-0.04,0.28 -0.21,0.5 -0.37,0.63 -0.17,0.14 -0.33,0.2 -0.33,0.2 0,0 -0.03,-0.04 -0.08,-0.12 -0.04,-0.08 -0.1,-0.19 -0.16,-0.32 -0.05,-0.12 -0.1,-0.27 -0.13,-0.41 -0.02,-0.15 -0.02,-0.3 0.02,-0.44 0.07,-0.28 0.27,-0.46 0.44,-0.58 0.18,-0.12 0.32,-0.17 0.32,-0.17 0,0 0.02,0.04 0.05,0.12 0.04,0.06 0.08,0.16 0.12,0.28 0.08,0.22 0.15,0.54 0.12,0.81z"/>
      <path class="fil1" d="M6.44 22.17c-0.08,0.26 -0.27,0.44 -0.44,0.54 -0.18,0.11 -0.34,0.14 -0.34,0.14 0,0 -0.1,-0.2 -0.16,-0.45 -0.04,-0.13 -0.07,-0.27 -0.07,-0.42 0,-0.15 0.03,-0.29 0.08,-0.42 0.11,-0.26 0.33,-0.4 0.51,-0.49 0.19,-0.09 0.34,-0.12 0.34,-0.12 0,0 0.01,0.05 0.03,0.12 0.02,0.08 0.04,0.18 0.07,0.29 0.04,0.23 0.07,0.54 -0.02,0.81z"/>
      <path class="fil1" d="M5.38 21c-0.12,0.24 -0.32,0.38 -0.51,0.45 -0.18,0.08 -0.33,0.08 -0.33,0.08 0,0 -0.07,-0.2 -0.09,-0.45 -0.04,-0.26 -0.01,-0.58 0.13,-0.81 0.15,-0.23 0.38,-0.34 0.56,-0.39 0.19,-0.06 0.34,-0.06 0.34,-0.06 0,0 0.01,0.04 0.02,0.12 0,0.07 0.01,0.17 0.01,0.29 0.01,0.23 0,0.52 -0.13,0.77z"/>
      <path class="fil1" d="M4.54 19.7c-0.15,0.21 -0.37,0.32 -0.55,0.36 -0.18,0.05 -0.33,0.03 -0.33,0.03 0,0 -0.03,-0.2 -0.02,-0.45 0,-0.25 0.08,-0.55 0.25,-0.75 0.17,-0.21 0.4,-0.28 0.59,-0.3 0.18,-0.03 0.33,-0.01 0.33,-0.01 0,0 0,0.04 -0.01,0.11 0,0.07 -0.01,0.18 -0.02,0.29 -0.02,0.22 -0.08,0.5 -0.24,0.72z"/>
      <path class="fil1" d="M3.93 18.31c-0.17,0.18 -0.4,0.25 -0.58,0.27 -0.18,0.02 -0.32,-0.02 -0.32,-0.02 0,0 0,-0.2 0.05,-0.44 0.02,-0.11 0.05,-0.24 0.11,-0.36 0.06,-0.13 0.13,-0.24 0.23,-0.32 0.19,-0.17 0.42,-0.21 0.61,-0.21 0.18,0 0.31,0.04 0.31,0.04 0,0 0,0.04 -0.02,0.11 -0.01,0.07 -0.04,0.16 -0.06,0.27 -0.05,0.21 -0.15,0.47 -0.33,0.66z"/>
      <path class="fil1" d="M3.55 16.87c-0.19,0.15 -0.41,0.19 -0.59,0.18 -0.18,-0.01 -0.31,-0.06 -0.31,-0.06 0,0 0.03,-0.19 0.11,-0.41 0.08,-0.22 0.21,-0.48 0.42,-0.62 0.21,-0.13 0.44,-0.14 0.61,-0.11 0.17,0.02 0.3,0.08 0.3,0.08 0,0 -0.02,0.04 -0.04,0.1 -0.02,0.06 -0.05,0.15 -0.09,0.25 -0.08,0.19 -0.22,0.43 -0.41,0.59z"/>
      <path class="fil1" d="M3.4 15.41c-0.2,0.13 -0.42,0.13 -0.59,0.1 -0.17,-0.03 -0.28,-0.09 -0.28,-0.09 0,0 0.01,-0.05 0.03,-0.12 0.03,-0.07 0.07,-0.16 0.12,-0.26 0.11,-0.21 0.27,-0.43 0.48,-0.54 0.22,-0.1 0.43,-0.08 0.6,-0.04 0.16,0.05 0.27,0.12 0.27,0.12 0,0 -0.02,0.03 -0.04,0.09 -0.03,0.06 -0.07,0.14 -0.13,0.23 -0.1,0.18 -0.27,0.39 -0.46,0.51z"/>
      <path class="fil1" d="M3.46 13.98c-0.21,0.1 -0.42,0.07 -0.57,0.02 -0.16,-0.04 -0.26,-0.12 -0.26,-0.12 0,0 0.01,-0.04 0.04,-0.11 0.03,-0.06 0.08,-0.14 0.15,-0.23 0.13,-0.18 0.32,-0.38 0.53,-0.46 0.21,-0.07 0.42,-0.02 0.57,0.04 0.15,0.06 0.25,0.14 0.25,0.14 0,0 -0.07,0.13 -0.2,0.29 -0.13,0.16 -0.31,0.34 -0.51,0.43z"/>
      <path class="fil1" d="M3.72 12.6c-0.22,0.07 -0.41,0.02 -0.55,-0.04 -0.15,-0.07 -0.23,-0.15 -0.23,-0.15 0,0 0.02,-0.04 0.05,-0.1 0.04,-0.05 0.09,-0.13 0.17,-0.21 0.15,-0.15 0.35,-0.32 0.57,-0.36 0.21,-0.05 0.4,0.02 0.54,0.1 0.13,0.07 0.22,0.16 0.22,0.16 0,0 -0.09,0.12 -0.23,0.25 -0.07,0.07 -0.16,0.14 -0.25,0.2 -0.09,0.07 -0.19,0.12 -0.29,0.15z"/>
      <path class="fil1" d="M4.16 11.3c-0.21,0.04 -0.39,-0.03 -0.52,-0.1 -0.13,-0.08 -0.2,-0.17 -0.2,-0.17 0,0 0.1,-0.13 0.25,-0.27 0.16,-0.13 0.38,-0.26 0.59,-0.28 0.21,-0.02 0.38,0.07 0.5,0.16 0.12,0.09 0.19,0.18 0.19,0.18 0,0 -0.1,0.1 -0.25,0.21 -0.16,0.11 -0.35,0.24 -0.56,0.27z"/>
      <path class="fil1" d="M4.76 10.1c-0.2,0.01 -0.37,-0.07 -0.48,-0.16 -0.11,-0.09 -0.17,-0.18 -0.17,-0.18 0,0 0.11,-0.11 0.27,-0.22 0.16,-0.11 0.39,-0.21 0.6,-0.21 0.2,0.01 0.36,0.11 0.46,0.21 0.11,0.1 0.16,0.19 0.16,0.19 0,0 -0.11,0.09 -0.27,0.17 -0.16,0.09 -0.36,0.19 -0.57,0.2z"/>
      <path class="fil1" d="M5.51 9.01c-0.2,-0.01 -0.35,-0.1 -0.45,-0.2 -0.09,-0.1 -0.14,-0.19 -0.14,-0.19 0,0 0.12,-0.09 0.29,-0.18 0.08,-0.04 0.18,-0.08 0.28,-0.11 0.1,-0.02 0.21,-0.03 0.31,-0.02 0.2,0.03 0.33,0.14 0.42,0.24 0.09,0.11 0.13,0.2 0.13,0.2 0,0 -0.11,0.07 -0.28,0.14 -0.15,0.07 -0.36,0.14 -0.56,0.12z"/>
      <path class="fil1" d="M6.37 8.05c-0.19,-0.03 -0.32,-0.14 -0.4,-0.24 -0.09,-0.1 -0.12,-0.19 -0.12,-0.19 0,0 0.12,-0.07 0.3,-0.13 0.17,-0.06 0.38,-0.12 0.57,-0.07 0.19,0.04 0.31,0.16 0.38,0.27 0.08,0.11 0.11,0.2 0.11,0.2 0,0 -0.03,0.01 -0.08,0.03 -0.05,0.02 -0.12,0.05 -0.2,0.07 -0.16,0.05 -0.37,0.1 -0.56,0.06z"/>
      <path class="fil1" d="M7.33 7.23c-0.17,-0.05 -0.29,-0.16 -0.36,-0.27 -0.07,-0.1 -0.09,-0.19 -0.09,-0.19 0,0 0.03,-0.02 0.08,-0.04 0.05,-0.02 0.12,-0.04 0.21,-0.06 0.17,-0.04 0.39,-0.06 0.56,0 0.17,0.05 0.27,0.18 0.34,0.28 0.06,0.11 0.08,0.21 0.08,0.21 0,0 -0.12,0.04 -0.28,0.07 -0.16,0.03 -0.36,0.04 -0.54,0z"/>
     </g>
     <path class="fil1" d="M9.02 25.2c-1.63,-0.67 -3.08,-1.77 -4.2,-3.13 -1.3,-1.59 -2.14,-3.55 -2.35,-5.6 -0.22,-2.03 0.14,-4.14 1.07,-5.97 0.92,-1.83 2.37,-3.39 4.14,-4.43 0.05,-0.03 0.12,-0.02 0.15,0.02 0.02,0.05 0,0.11 -0.05,0.14 -1.74,1.02 -3.17,2.55 -4.07,4.36 -0.91,1.8 -1.27,3.86 -1.05,5.86 0.21,2.01 1.03,3.94 2.31,5.5 1.08,1.32 2.48,2.38 4.05,3.05l0 0.2z"/>
     <path class="fil1" d="M8.37 6.13c-0.19,0.1 -0.41,0.14 -0.58,0.14 -0.08,0.01 -0.15,0 -0.2,0 -0.05,0 -0.08,0 -0.08,0 0,0 0.01,-0.03 0.03,-0.08 0.02,-0.04 0.06,-0.11 0.11,-0.17 0.1,-0.14 0.25,-0.31 0.46,-0.42 0.21,-0.11 0.44,-0.12 0.61,-0.12 0.16,0.01 0.28,0.04 0.28,0.04 0,0 -0.06,0.1 -0.17,0.23 -0.1,0.13 -0.26,0.28 -0.46,0.38z"/>
    </g>
   </g>
   <g>
    <path class="fil2" d="M13.07 7.62c0.17,0 0.37,0.01 0.53,-0.02 0.17,-0.03 0.22,-0.03 0.41,-0.09 0.03,-0.01 0.08,-0.03 0.12,-0.04 0.02,-0.01 0.02,-0.01 0.05,-0.02 0.02,-0.01 0.02,-0.01 0.03,-0.01 0,0 0.01,-0.01 0.01,-0.01l0.02 -0.01c0.05,-0.02 0.08,-0.03 0.12,-0.05 0.08,-0.04 0.15,-0.07 0.21,-0.11 0.14,-0.08 0.37,-0.23 0.48,-0.34 0.16,-0.15 0.26,-0.24 0.4,-0.43 0.02,-0.03 0.04,-0.06 0.06,-0.1 0.03,-0.03 0.04,-0.06 0.07,-0.1 0.17,-0.25 0.31,-0.64 0.37,-0.95 0,-0.04 0.01,-0.09 0.02,-0.14 0.03,-0.17 0.04,-0.57 0,-0.72 -0.03,-0.15 -0.02,-0.25 -0.1,-0.49l-0.12 -0.31c-0.05,-0.11 -0.35,-0.67 -0.48,-0.71l0.16 0.38c0.05,0.12 0.09,0.32 0.11,0.45 0.05,0.28 0.01,0.67 -0.06,0.94 -0.09,0.38 -0.38,0.89 -0.67,1.14 0,0 -0.01,0 -0.01,0l-0.03 0.03c-0.19,0.16 -0.2,0.16 -0.4,0.29 -0.04,0.02 -0.07,0.04 -0.11,0.06 -0.25,0.12 -0.51,0.2 -0.79,0.23 -0.29,0.03 -0.35,0.02 -0.63,0l-0.22 -0.05c-0.02,-0.01 -0.04,-0.01 -0.07,-0.02 -0.24,-0.06 -0.48,-0.18 -0.69,-0.32 -0.08,-0.05 -0.13,-0.1 -0.2,-0.15l-0.18 -0.16c-0.05,-0.06 -0.11,-0.13 -0.16,-0.19 -0.21,-0.27 -0.36,-0.58 -0.44,-0.93 -0.1,-0.45 -0.07,-1.03 0.12,-1.45 0.03,-0.06 0.1,-0.18 0.1,-0.25 -0.14,0.06 -0.5,0.73 -0.56,0.94 -0.14,0.43 -0.2,0.89 -0.12,1.35 0.04,0.25 0.06,0.31 0.14,0.54 0.09,0.29 0.31,0.6 0.49,0.84 0.05,0.06 0.11,0.12 0.17,0.17 0.05,0.06 0.1,0.11 0.16,0.16l0.19 0.14c0.12,0.09 0.29,0.19 0.42,0.25 0.04,0.02 0.07,0.03 0.12,0.05 0.01,0.01 0.04,0.02 0.06,0.03 0.23,0.1 0.64,0.18 0.9,0.18z"/>
    <path class="fil2" d="M12.66 2.64c0,0.08 -0.06,0.26 -0.09,0.34l-0.17 0.58c0.09,-0.01 0.6,-0.39 0.69,-0.46 0.12,-0.08 0.1,-0.07 0.29,0.06 0.08,0.06 0.52,0.39 0.6,0.4l-0.13 -0.46c-0.01,-0.04 -0.03,-0.07 -0.04,-0.11l-0.1 -0.34c0.04,-0.02 0.05,-0.04 0.09,-0.07l0.61 -0.45c0.04,-0.04 0.02,0.01 0.03,-0.06 -0.07,-0.03 -0.74,-0.01 -0.93,-0.01 0,-0.05 -0.02,-0.07 -0.03,-0.12 -0.01,-0.03 -0.03,-0.07 -0.04,-0.1 -0.04,-0.12 -0.22,-0.6 -0.22,-0.67 -0.07,0.02 -0.07,0.08 -0.11,0.19l-0.12 0.35c-0.03,0.1 -0.1,0.29 -0.14,0.35 -0.24,0 -0.76,-0.02 -0.91,0.01 0.01,0.05 0.03,0.06 0.07,0.09 0.04,0.02 0.05,0.03 0.09,0.06l0.37 0.28c0.05,0.04 0.14,0.12 0.19,0.14z"/>
   </g>
   <polygon class="fil3" points="11.02,24.28 11.02,24.64 11.73,24.64 11.73,25.12 11.02,25.12 11.02,25.52 11.83,25.52 11.83,26.02 10.4,26.02 10.4,23.78 11.83,23.78 11.83,24.28 "/>
   <path id="_1_0" class="fil3" d="M13.9 24.53c0,0.13 -0.03,0.25 -0.09,0.36 -0.06,0.11 -0.16,0.2 -0.28,0.27 -0.13,0.07 -0.28,0.1 -0.47,0.1l-0.3 0 0 0.76 -0.62 0 0 -2.24 0.92 0c0.19,0 0.34,0.03 0.46,0.1 0.13,0.06 0.22,0.15 0.29,0.26 0.06,0.11 0.09,0.24 0.09,0.39zm-0.9 0.24c0.18,0 0.27,-0.08 0.27,-0.24 0,-0.17 -0.09,-0.25 -0.27,-0.25l-0.24 0 0 0.49 0.24 0z"/>
   <path id="_2_1" class="fil3" d="M15.28 26.02l-0.44 -0.83 -0.07 0 0 0.83 -0.62 0 0 -2.24 0.98 0c0.18,0 0.33,0.03 0.46,0.09 0.12,0.07 0.22,0.15 0.28,0.26 0.06,0.11 0.1,0.23 0.1,0.37 0,0.15 -0.05,0.28 -0.13,0.4 -0.08,0.11 -0.2,0.2 -0.37,0.24l0.51 0.88 -0.7 0zm-0.51 -1.25l0.31 0c0.09,0 0.15,-0.02 0.19,-0.06 0.04,-0.04 0.06,-0.1 0.06,-0.18 0,-0.07 -0.02,-0.13 -0.06,-0.17 -0.04,-0.04 -0.11,-0.06 -0.19,-0.06l-0.31 0 0 0.47z"/>
   <g>
    <path class="fil4" d="M17.76 16.94c0,0.32 -0.07,0.19 -0.34,0.5 -0.2,0.24 -0.28,0.24 -0.4,0.41 -0.09,0.11 -0.14,0.12 -0.28,0.27l-0.13 0.16c-0.05,0.05 -0.09,0.06 -0.15,0.12l-0.26 0.28c-0.05,0.04 -0.12,0.1 -0.15,0.13 -0.03,0.03 -0.04,0.05 -0.07,0.08 -0.04,0.04 -0.03,0.02 -0.06,0.06 -0.27,0.33 -0.26,0.13 -0.6,-0.17 -0.14,-0.12 -0.25,-0.18 -0.13,-0.32 0.04,-0.05 0.1,-0.09 0.16,-0.13 0.12,-0.09 0.19,-0.21 0.26,-0.29 0.05,-0.05 0.09,-0.07 0.15,-0.12 0.04,-0.04 0.09,-0.08 0.14,-0.14 0.05,-0.07 0.06,-0.09 0.12,-0.14 0.29,-0.25 0.22,-0.27 0.43,-0.41 0.11,-0.09 0.2,-0.23 0.26,-0.29 0.04,-0.04 0.11,-0.07 0.14,-0.13 -0.2,-0.2 -0.84,-0.19 -1.1,-0.02 -0.11,0.07 -0.19,0.12 -0.28,0.19l-1.17 1.17c-0.32,0.36 -0.33,0.15 -0.33,0.6 0,0.37 -0.02,2.14 0.01,2.3l0.74 -0.01c0.55,0 1.31,0.02 1.85,0l0.01 -0.61c0.02,-0.06 0.47,-0.58 0.55,-0.69 0.04,-0.05 0.05,-0.05 0.09,-0.09 0.03,-0.04 0.04,-0.06 0.07,-0.11l1.28 -1.54c0.06,-0.06 0.11,-0.11 0.16,-0.19 0.16,-0.24 0.26,-0.24 0.26,-0.43l0 -1.99c0,-0.52 0.02,-1.64 -0.01,-2.1 -0.13,-0.02 -0.43,0.08 -0.52,0.15 -0.17,0.11 -0.25,0.17 -0.38,0.29 -0.24,0.24 -0.33,0.61 -0.32,1.04l0 2.17z"/>
    <path class="fil4" d="M9.53 16.81c0.06,0.1 0.05,0 0.21,0.22 0.05,0.06 0.16,0.17 0.22,0.21 0.12,0.08 0.11,0.13 0.21,0.22 0.22,0.22 0.12,0.08 0.33,0.33 0.1,0.12 0.26,0.22 0.32,0.31 0.16,0.23 0.37,0.29 0.41,0.44 0.03,0.08 -0.01,0.1 -0.07,0.14 -0.13,0.11 -0.39,0.41 -0.43,0.43 -0.07,0.04 -0.11,0.01 -0.15,-0.04 -0.08,-0.07 -0.14,-0.14 -0.21,-0.21l-1.29 -1.29c-0.07,-0.07 -0.14,-0.14 -0.21,-0.21 -0.06,-0.06 -0.17,-0.15 -0.21,-0.21 -0.07,-0.08 -0.04,-1.46 -0.04,-1.67 0,-0.59 0.07,-1.06 -0.18,-1.54 -0.1,-0.2 -0.26,-0.31 -0.41,-0.44 -0.18,-0.15 -0.37,-0.17 -0.64,-0.22 -0.02,0.38 0,0.82 0,1.21l0 2.38c0,0.11 -0.01,0.52 0.01,0.59 0.01,0.05 0.18,0.25 0.24,0.34 0.1,0.14 0.19,0.18 0.28,0.33 0.03,0.05 0.09,0.13 0.13,0.17 0.06,0.07 0.11,0.09 0.15,0.15 0.09,0.13 0.15,0.24 0.26,0.34l0.67 0.82c0.07,0.11 0.08,0.06 0.14,0.15l0.29 0.35c0,0.01 0,0.01 0.01,0.01 0,0 0,0.01 0.01,0.01 0,0 0,0 0.01,0.01 0,0 0.02,0.04 0.02,0.04l0.2 0.23 0 0.64 2.59 -0.01c0.02,-0.22 0.01,-1.88 0.01,-2.31 0,-0.25 0.04,-0.23 -0.1,-0.36l-0.93 -0.93c-0.1,-0.1 -0.39,-0.39 -0.48,-0.46 -0.03,-0.03 -0.04,-0.04 -0.07,-0.06 -0.14,-0.12 -0.38,-0.22 -0.56,-0.25 -0.22,-0.03 -0.62,-0.01 -0.74,0.14z"/>
    <path class="fil4" d="M15.52 16.18c0.02,-0.24 0.01,-1.14 -0.04,-1.36 -0.07,-0.35 -0.13,-0.48 -0.29,-0.77 -0.12,-0.21 -0.21,-0.29 -0.29,-0.4 -0.15,-0.19 -0.38,-0.34 -0.6,-0.46 -0.72,-0.41 -1.51,-0.39 -2.23,0 -0.08,0.04 -0.14,0.09 -0.22,0.14 -0.15,0.1 -0.44,0.36 -0.53,0.51 -0.2,0.34 -0.34,0.51 -0.43,0.99 -0.04,0.26 -0.06,1.08 -0.03,1.35l4.66 0z"/>
    <path class="fil4" d="M12.94 9.48c-0.22,0.06 -0.42,0.1 -0.6,0.22 -0.19,0.11 -0.41,0.32 -0.51,0.5 -0.04,0.07 -0.05,0.06 -0.09,0.13 -0.17,0.32 -0.22,0.64 -0.17,1.02 0.02,0.16 0.13,0.49 0.21,0.6 0.06,0.07 0.11,0.15 0.18,0.22 0.15,0.14 0.1,0.18 0.46,0.36 0.1,0.06 0.15,0.1 0.27,0.14 0.24,0.07 0.48,0.09 0.73,0.06 0.33,-0.05 0.59,-0.2 0.84,-0.38l0.19 -0.22c0.17,-0.21 0.22,-0.26 0.3,-0.52 0.17,-0.58 0.05,-1.13 -0.32,-1.58 -0.04,-0.05 -0.05,-0.08 -0.09,-0.11 -0.03,-0.02 -0.04,-0.02 -0.06,-0.04 -0.18,-0.14 -0.26,-0.23 -0.59,-0.34 -0.17,-0.05 -0.56,-0.1 -0.75,-0.06z"/>
    <polygon class="fil4" points="8.55,19.88 8.81,19.88 8.81,19.61 8.54,19.61 "/>
   </g>
  </g>
  <rect class="fil5" width="81.64" height="27.4"/>
 </g>
</svg>
